<mxfile host="app.diagrams.net" agent="Mozilla/5.0 (Macintosh; Intel Mac OS X 10_15_7) AppleWebKit/537.36 (KHTML, like Gecko) Chrome/127.0.0.0 Safari/537.36" version="24.7.7">
  <diagram name="第 1 页" id="gPMJK_AAhSudHWWJOeFY">
    <mxGraphModel dx="1180" dy="732" grid="1" gridSize="10" guides="1" tooltips="1" connect="1" arrows="1" fold="1" page="1" pageScale="1" pageWidth="827" pageHeight="1169" math="0" shadow="0">
      <root>
        <mxCell id="0" />
        <mxCell id="1" parent="0" />
        <mxCell id="gZFIswUFL3Inhh1_GQlH-44" style="edgeStyle=orthogonalEdgeStyle;rounded=0;orthogonalLoop=1;jettySize=auto;html=1;exitX=1;exitY=0.5;exitDx=0;exitDy=0;" edge="1" parent="1" source="gZFIswUFL3Inhh1_GQlH-42" target="gZFIswUFL3Inhh1_GQlH-41">
          <mxGeometry relative="1" as="geometry" />
        </mxCell>
        <mxCell id="gZFIswUFL3Inhh1_GQlH-42" value="" style="rounded=0;whiteSpace=wrap;html=1;" vertex="1" parent="1">
          <mxGeometry x="1910" y="807" width="100" height="303" as="geometry" />
        </mxCell>
        <mxCell id="3E3HlsRtL0pauLYrI34w-65" value="" style="rounded=0;whiteSpace=wrap;html=1;dashed=1;" parent="1" vertex="1">
          <mxGeometry x="870" y="80.75" width="690" height="254.25" as="geometry" />
        </mxCell>
        <mxCell id="3E3HlsRtL0pauLYrI34w-64" value="" style="rounded=0;whiteSpace=wrap;html=1;dashed=1;" parent="1" vertex="1">
          <mxGeometry x="870" y="370.5" width="685" height="64.5" as="geometry" />
        </mxCell>
        <mxCell id="3E3HlsRtL0pauLYrI34w-63" value="" style="rounded=0;whiteSpace=wrap;html=1;dashed=1;" parent="1" vertex="1">
          <mxGeometry x="875" y="466" width="685" height="45" as="geometry" />
        </mxCell>
        <mxCell id="vBdCcDkNuVXMJskja2hN-22" style="edgeStyle=orthogonalEdgeStyle;rounded=0;orthogonalLoop=1;jettySize=auto;html=1;exitX=0.5;exitY=1;exitDx=0;exitDy=0;entryX=0.5;entryY=0;entryDx=0;entryDy=0;shape=flexArrow;" parent="1" source="vBdCcDkNuVXMJskja2hN-1" target="vBdCcDkNuVXMJskja2hN-5" edge="1">
          <mxGeometry relative="1" as="geometry" />
        </mxCell>
        <mxCell id="vBdCcDkNuVXMJskja2hN-1" value="" style="rounded=1;whiteSpace=wrap;html=1;" parent="1" vertex="1">
          <mxGeometry x="150" y="100" width="460" height="120" as="geometry" />
        </mxCell>
        <mxCell id="vBdCcDkNuVXMJskja2hN-2" value="支付" style="ellipse;whiteSpace=wrap;html=1;aspect=fixed;" parent="1" vertex="1">
          <mxGeometry x="180" y="140" width="70" height="70" as="geometry" />
        </mxCell>
        <mxCell id="vBdCcDkNuVXMJskja2hN-3" value="退款" style="ellipse;whiteSpace=wrap;html=1;aspect=fixed;" parent="1" vertex="1">
          <mxGeometry x="330" y="135" width="70" height="70" as="geometry" />
        </mxCell>
        <mxCell id="vBdCcDkNuVXMJskja2hN-4" value="结算" style="ellipse;whiteSpace=wrap;html=1;aspect=fixed;" parent="1" vertex="1">
          <mxGeometry x="500" y="135" width="70" height="70" as="geometry" />
        </mxCell>
        <mxCell id="vBdCcDkNuVXMJskja2hN-23" style="edgeStyle=orthogonalEdgeStyle;rounded=0;orthogonalLoop=1;jettySize=auto;html=1;exitX=0.25;exitY=1;exitDx=0;exitDy=0;entryX=0.25;entryY=0;entryDx=0;entryDy=0;shape=flexArrow;" parent="1" source="vBdCcDkNuVXMJskja2hN-5" target="vBdCcDkNuVXMJskja2hN-15" edge="1">
          <mxGeometry relative="1" as="geometry" />
        </mxCell>
        <mxCell id="vBdCcDkNuVXMJskja2hN-24" style="edgeStyle=orthogonalEdgeStyle;rounded=0;orthogonalLoop=1;jettySize=auto;html=1;exitX=0.75;exitY=1;exitDx=0;exitDy=0;entryX=0.75;entryY=0;entryDx=0;entryDy=0;shape=flexArrow;" parent="1" source="vBdCcDkNuVXMJskja2hN-5" target="vBdCcDkNuVXMJskja2hN-15" edge="1">
          <mxGeometry relative="1" as="geometry" />
        </mxCell>
        <mxCell id="vBdCcDkNuVXMJskja2hN-5" value="" style="rounded=1;whiteSpace=wrap;html=1;" parent="1" vertex="1">
          <mxGeometry x="150" y="290" width="460" height="180" as="geometry" />
        </mxCell>
        <mxCell id="vBdCcDkNuVXMJskja2hN-6" value="集成服务" style="rounded=0;whiteSpace=wrap;html=1;" parent="1" vertex="1">
          <mxGeometry x="180" y="310" width="90" height="40" as="geometry" />
        </mxCell>
        <mxCell id="vBdCcDkNuVXMJskja2hN-7" value="转账服务" style="rounded=0;whiteSpace=wrap;html=1;" parent="1" vertex="1">
          <mxGeometry x="310" y="310" width="90" height="40" as="geometry" />
        </mxCell>
        <mxCell id="vBdCcDkNuVXMJskja2hN-33" style="edgeStyle=orthogonalEdgeStyle;rounded=0;orthogonalLoop=1;jettySize=auto;html=1;exitX=1;exitY=0.5;exitDx=0;exitDy=0;entryX=0;entryY=0.5;entryDx=0;entryDy=0;shape=flexArrow;" parent="1" source="vBdCcDkNuVXMJskja2hN-8" target="vBdCcDkNuVXMJskja2hN-32" edge="1">
          <mxGeometry relative="1" as="geometry" />
        </mxCell>
        <mxCell id="vBdCcDkNuVXMJskja2hN-8" value="提现服务" style="rounded=0;whiteSpace=wrap;html=1;" parent="1" vertex="1">
          <mxGeometry x="460" y="310" width="90" height="40" as="geometry" />
        </mxCell>
        <mxCell id="vBdCcDkNuVXMJskja2hN-9" value="原子接口" style="rounded=0;whiteSpace=wrap;html=1;" parent="1" vertex="1">
          <mxGeometry x="180" y="370" width="90" height="40" as="geometry" />
        </mxCell>
        <mxCell id="vBdCcDkNuVXMJskja2hN-10" value="物料录入接口" style="rounded=0;whiteSpace=wrap;html=1;" parent="1" vertex="1">
          <mxGeometry x="280" y="370" width="90" height="40" as="geometry" />
        </mxCell>
        <mxCell id="vBdCcDkNuVXMJskja2hN-11" value="鉴权接口" style="rounded=0;whiteSpace=wrap;html=1;" parent="1" vertex="1">
          <mxGeometry x="380" y="370" width="90" height="40" as="geometry" />
        </mxCell>
        <mxCell id="vBdCcDkNuVXMJskja2hN-12" value="其它接口" style="rounded=0;whiteSpace=wrap;html=1;" parent="1" vertex="1">
          <mxGeometry x="490" y="370" width="90" height="40" as="geometry" />
        </mxCell>
        <mxCell id="vBdCcDkNuVXMJskja2hN-13" value="用户资料" style="rounded=0;whiteSpace=wrap;html=1;" parent="1" vertex="1">
          <mxGeometry x="247.5" y="420" width="90" height="40" as="geometry" />
        </mxCell>
        <mxCell id="vBdCcDkNuVXMJskja2hN-14" value="基础单据" style="rounded=0;whiteSpace=wrap;html=1;" parent="1" vertex="1">
          <mxGeometry x="392.5" y="420" width="90" height="40" as="geometry" />
        </mxCell>
        <mxCell id="vBdCcDkNuVXMJskja2hN-15" value="" style="rounded=1;whiteSpace=wrap;html=1;" parent="1" vertex="1">
          <mxGeometry x="150" y="530" width="460" height="180" as="geometry" />
        </mxCell>
        <mxCell id="vBdCcDkNuVXMJskja2hN-16" value="账户数据库" style="rounded=0;whiteSpace=wrap;html=1;" parent="1" vertex="1">
          <mxGeometry x="230" y="545" width="90" height="40" as="geometry" />
        </mxCell>
        <mxCell id="vBdCcDkNuVXMJskja2hN-17" value="记账凭证单" style="rounded=0;whiteSpace=wrap;html=1;" parent="1" vertex="1">
          <mxGeometry x="450" y="545" width="90" height="40" as="geometry" />
        </mxCell>
        <mxCell id="vBdCcDkNuVXMJskja2hN-18" value="现金账户" style="rounded=0;whiteSpace=wrap;html=1;" parent="1" vertex="1">
          <mxGeometry x="190" y="601" width="90" height="40" as="geometry" />
        </mxCell>
        <mxCell id="vBdCcDkNuVXMJskja2hN-19" value="交易账户" style="rounded=0;whiteSpace=wrap;html=1;" parent="1" vertex="1">
          <mxGeometry x="330" y="601" width="90" height="40" as="geometry" />
        </mxCell>
        <mxCell id="vBdCcDkNuVXMJskja2hN-20" value="银行账户" style="rounded=0;whiteSpace=wrap;html=1;" parent="1" vertex="1">
          <mxGeometry x="470" y="601" width="90" height="40" as="geometry" />
        </mxCell>
        <mxCell id="vBdCcDkNuVXMJskja2hN-21" value="&lt;b&gt;&lt;font style=&quot;font-size: 17px;&quot;&gt;领域业务&lt;/font&gt;&lt;/b&gt;" style="text;html=1;align=center;verticalAlign=middle;whiteSpace=wrap;rounded=0;" parent="1" vertex="1">
          <mxGeometry x="335" y="100" width="90" height="30" as="geometry" />
        </mxCell>
        <mxCell id="vBdCcDkNuVXMJskja2hN-25" value="开户" style="text;html=1;align=center;verticalAlign=middle;resizable=0;points=[];autosize=1;strokeColor=none;fillColor=none;" parent="1" vertex="1">
          <mxGeometry x="215" y="478" width="50" height="30" as="geometry" />
        </mxCell>
        <mxCell id="vBdCcDkNuVXMJskja2hN-26" value="记账" style="text;html=1;align=center;verticalAlign=middle;resizable=0;points=[];autosize=1;strokeColor=none;fillColor=none;" parent="1" vertex="1">
          <mxGeometry x="495" y="478" width="50" height="30" as="geometry" />
        </mxCell>
        <mxCell id="vBdCcDkNuVXMJskja2hN-27" value="&lt;b&gt;&lt;font style=&quot;font-size: 17px;&quot;&gt;基础交易平台&lt;/font&gt;&lt;/b&gt;" style="text;html=1;align=center;verticalAlign=middle;whiteSpace=wrap;rounded=0;" parent="1" vertex="1">
          <mxGeometry x="160" y="420" width="80" height="45" as="geometry" />
        </mxCell>
        <mxCell id="vBdCcDkNuVXMJskja2hN-29" value="&lt;b&gt;&lt;font style=&quot;font-size: 17px;&quot;&gt;核心记账平台&lt;/font&gt;&lt;/b&gt;" style="text;html=1;align=center;verticalAlign=middle;whiteSpace=wrap;rounded=0;" parent="1" vertex="1">
          <mxGeometry x="285" y="650" width="155" height="45" as="geometry" />
        </mxCell>
        <mxCell id="vBdCcDkNuVXMJskja2hN-31" style="edgeStyle=orthogonalEdgeStyle;rounded=0;orthogonalLoop=1;jettySize=auto;html=1;exitX=1;exitY=0.5;exitDx=0;exitDy=0;entryX=0;entryY=0.5;entryDx=0;entryDy=0;shape=flexArrow;" parent="1" source="vBdCcDkNuVXMJskja2hN-30" target="vBdCcDkNuVXMJskja2hN-15" edge="1">
          <mxGeometry relative="1" as="geometry" />
        </mxCell>
        <mxCell id="vBdCcDkNuVXMJskja2hN-30" value="资管" style="ellipse;whiteSpace=wrap;html=1;aspect=fixed;" parent="1" vertex="1">
          <mxGeometry x="20" y="585" width="70" height="70" as="geometry" />
        </mxCell>
        <mxCell id="vBdCcDkNuVXMJskja2hN-32" value="付款" style="ellipse;whiteSpace=wrap;html=1;aspect=fixed;" parent="1" vertex="1">
          <mxGeometry x="660" y="295" width="70" height="70" as="geometry" />
        </mxCell>
        <mxCell id="vBdCcDkNuVXMJskja2hN-34" value="&lt;b&gt;&lt;font style=&quot;font-size: 20px;&quot;&gt;支付技术架构示意图&lt;/font&gt;&lt;/b&gt;" style="text;html=1;align=center;verticalAlign=middle;resizable=0;points=[];autosize=1;strokeColor=none;fillColor=none;" parent="1" vertex="1">
          <mxGeometry x="265" y="713" width="200" height="40" as="geometry" />
        </mxCell>
        <mxCell id="3E3HlsRtL0pauLYrI34w-2" value="" style="rounded=0;whiteSpace=wrap;html=1;" parent="1" vertex="1">
          <mxGeometry x="900" y="135" width="120" height="80" as="geometry" />
        </mxCell>
        <mxCell id="3E3HlsRtL0pauLYrI34w-3" value="结算规则" style="rounded=0;whiteSpace=wrap;html=1;" parent="1" vertex="1">
          <mxGeometry x="925" y="159" width="70" height="20" as="geometry" />
        </mxCell>
        <mxCell id="3E3HlsRtL0pauLYrI34w-4" value="计费规则" style="rounded=0;whiteSpace=wrap;html=1;" parent="1" vertex="1">
          <mxGeometry x="925" y="189" width="70" height="20" as="geometry" />
        </mxCell>
        <mxCell id="3E3HlsRtL0pauLYrI34w-5" value="规则服务" style="text;html=1;align=center;verticalAlign=middle;resizable=0;points=[];autosize=1;strokeColor=none;fillColor=none;" parent="1" vertex="1">
          <mxGeometry x="925" y="129" width="70" height="30" as="geometry" />
        </mxCell>
        <mxCell id="3E3HlsRtL0pauLYrI34w-30" style="rounded=0;orthogonalLoop=1;jettySize=auto;html=1;exitX=0;exitY=0.25;exitDx=0;exitDy=0;entryX=1;entryY=0.5;entryDx=0;entryDy=0;" parent="1" source="3E3HlsRtL0pauLYrI34w-6" target="3E3HlsRtL0pauLYrI34w-2" edge="1">
          <mxGeometry relative="1" as="geometry" />
        </mxCell>
        <mxCell id="3E3HlsRtL0pauLYrI34w-38" style="edgeStyle=orthogonalEdgeStyle;rounded=0;orthogonalLoop=1;jettySize=auto;html=1;exitX=0.5;exitY=1;exitDx=0;exitDy=0;entryX=1;entryY=0.5;entryDx=0;entryDy=0;entryPerimeter=0;" parent="1" source="3E3HlsRtL0pauLYrI34w-6" target="3E3HlsRtL0pauLYrI34w-7" edge="1">
          <mxGeometry relative="1" as="geometry">
            <mxPoint x="1185" y="145" as="targetPoint" />
          </mxGeometry>
        </mxCell>
        <mxCell id="3E3HlsRtL0pauLYrI34w-40" style="edgeStyle=orthogonalEdgeStyle;rounded=0;orthogonalLoop=1;jettySize=auto;html=1;exitX=1;exitY=0.5;exitDx=0;exitDy=0;entryX=0;entryY=0.25;entryDx=0;entryDy=0;" parent="1" source="3E3HlsRtL0pauLYrI34w-6" target="3E3HlsRtL0pauLYrI34w-13" edge="1">
          <mxGeometry relative="1" as="geometry" />
        </mxCell>
        <mxCell id="3E3HlsRtL0pauLYrI34w-6" value="结算受理" style="rounded=0;whiteSpace=wrap;html=1;" parent="1" vertex="1">
          <mxGeometry x="1150" y="109" width="70" height="20" as="geometry" />
        </mxCell>
        <mxCell id="3E3HlsRtL0pauLYrI34w-9" value="" style="rounded=0;whiteSpace=wrap;html=1;" parent="1" vertex="1">
          <mxGeometry x="1125" y="227.25" width="120" height="80" as="geometry" />
        </mxCell>
        <mxCell id="3E3HlsRtL0pauLYrI34w-41" style="edgeStyle=orthogonalEdgeStyle;rounded=0;orthogonalLoop=1;jettySize=auto;html=1;exitX=1;exitY=0.5;exitDx=0;exitDy=0;entryX=0;entryY=0.5;entryDx=0;entryDy=0;" parent="1" source="3E3HlsRtL0pauLYrI34w-10" target="3E3HlsRtL0pauLYrI34w-13" edge="1">
          <mxGeometry relative="1" as="geometry" />
        </mxCell>
        <mxCell id="3E3HlsRtL0pauLYrI34w-10" value="结算计算" style="rounded=0;whiteSpace=wrap;html=1;" parent="1" vertex="1">
          <mxGeometry x="1150" y="251.25" width="70" height="20" as="geometry" />
        </mxCell>
        <mxCell id="3E3HlsRtL0pauLYrI34w-46" style="edgeStyle=orthogonalEdgeStyle;rounded=0;orthogonalLoop=1;jettySize=auto;html=1;exitX=0.5;exitY=1;exitDx=0;exitDy=0;entryX=0.5;entryY=0;entryDx=0;entryDy=0;" parent="1" source="3E3HlsRtL0pauLYrI34w-11" target="3E3HlsRtL0pauLYrI34w-22" edge="1">
          <mxGeometry relative="1" as="geometry" />
        </mxCell>
        <mxCell id="3E3HlsRtL0pauLYrI34w-11" value="结算付款" style="rounded=0;whiteSpace=wrap;html=1;" parent="1" vertex="1">
          <mxGeometry x="1150" y="278.25" width="70" height="20" as="geometry" />
        </mxCell>
        <mxCell id="3E3HlsRtL0pauLYrI34w-12" value="结算处理" style="text;html=1;align=center;verticalAlign=middle;resizable=0;points=[];autosize=1;strokeColor=none;fillColor=none;" parent="1" vertex="1">
          <mxGeometry x="1150" y="221.25" width="70" height="30" as="geometry" />
        </mxCell>
        <mxCell id="3E3HlsRtL0pauLYrI34w-13" value="结算DAO" style="rounded=0;whiteSpace=wrap;html=1;" parent="1" vertex="1">
          <mxGeometry x="1360" y="105" width="40" height="105" as="geometry" />
        </mxCell>
        <mxCell id="3E3HlsRtL0pauLYrI34w-14" value="" style="shape=cylinder3;whiteSpace=wrap;html=1;boundedLbl=1;backgroundOutline=1;size=15;" parent="1" vertex="1">
          <mxGeometry x="1460" y="98" width="80" height="120" as="geometry" />
        </mxCell>
        <mxCell id="3E3HlsRtL0pauLYrI34w-15" value="结算库" style="text;html=1;align=center;verticalAlign=middle;resizable=0;points=[];autosize=1;strokeColor=none;fillColor=none;" parent="1" vertex="1">
          <mxGeometry x="1460" y="98" width="60" height="30" as="geometry" />
        </mxCell>
        <mxCell id="3E3HlsRtL0pauLYrI34w-16" value="结算单据" style="rounded=0;whiteSpace=wrap;html=1;" parent="1" vertex="1">
          <mxGeometry x="1477" y="130.5" width="50" height="20" as="geometry" />
        </mxCell>
        <mxCell id="3E3HlsRtL0pauLYrI34w-17" value="结算实例" style="rounded=0;whiteSpace=wrap;html=1;" parent="1" vertex="1">
          <mxGeometry x="1477" y="158" width="50" height="20" as="geometry" />
        </mxCell>
        <mxCell id="3E3HlsRtL0pauLYrI34w-18" value="结算收付" style="rounded=0;whiteSpace=wrap;html=1;" parent="1" vertex="1">
          <mxGeometry x="1477" y="184.25" width="50" height="20" as="geometry" />
        </mxCell>
        <mxCell id="3E3HlsRtL0pauLYrI34w-20" style="edgeStyle=orthogonalEdgeStyle;rounded=0;orthogonalLoop=1;jettySize=auto;html=1;exitX=1;exitY=0.5;exitDx=0;exitDy=0;entryX=0.5;entryY=0;entryDx=0;entryDy=0;" parent="1" source="3E3HlsRtL0pauLYrI34w-19" target="3E3HlsRtL0pauLYrI34w-6" edge="1">
          <mxGeometry relative="1" as="geometry" />
        </mxCell>
        <mxCell id="3E3HlsRtL0pauLYrI34w-19" value="订单系统" style="rounded=0;whiteSpace=wrap;html=1;" parent="1" vertex="1">
          <mxGeometry x="1070" y="45" width="70" height="20" as="geometry" />
        </mxCell>
        <mxCell id="3E3HlsRtL0pauLYrI34w-21" value="1. 结算通知" style="text;html=1;align=center;verticalAlign=middle;resizable=0;points=[];autosize=1;strokeColor=none;fillColor=none;" parent="1" vertex="1">
          <mxGeometry x="1133" y="31" width="80" height="30" as="geometry" />
        </mxCell>
        <mxCell id="3E3HlsRtL0pauLYrI34w-48" style="edgeStyle=orthogonalEdgeStyle;rounded=0;orthogonalLoop=1;jettySize=auto;html=1;exitX=1;exitY=0.5;exitDx=0;exitDy=0;entryX=0;entryY=0.5;entryDx=0;entryDy=0;" parent="1" source="3E3HlsRtL0pauLYrI34w-22" target="3E3HlsRtL0pauLYrI34w-24" edge="1">
          <mxGeometry relative="1" as="geometry" />
        </mxCell>
        <mxCell id="3E3HlsRtL0pauLYrI34w-50" style="edgeStyle=orthogonalEdgeStyle;rounded=0;orthogonalLoop=1;jettySize=auto;html=1;exitX=0.5;exitY=1;exitDx=0;exitDy=0;entryX=0.5;entryY=0;entryDx=0;entryDy=0;" parent="1" source="3E3HlsRtL0pauLYrI34w-22" target="3E3HlsRtL0pauLYrI34w-27" edge="1">
          <mxGeometry relative="1" as="geometry">
            <Array as="points">
              <mxPoint x="960" y="455" />
              <mxPoint x="1003" y="455" />
            </Array>
          </mxGeometry>
        </mxCell>
        <mxCell id="3E3HlsRtL0pauLYrI34w-22" value="资金操作" style="rounded=0;whiteSpace=wrap;html=1;" parent="1" vertex="1">
          <mxGeometry x="925" y="385" width="70" height="20" as="geometry" />
        </mxCell>
        <mxCell id="3E3HlsRtL0pauLYrI34w-24" value="资金单据" style="rounded=0;whiteSpace=wrap;html=1;" parent="1" vertex="1">
          <mxGeometry x="1063" y="385" width="70" height="20" as="geometry" />
        </mxCell>
        <mxCell id="3E3HlsRtL0pauLYrI34w-54" style="edgeStyle=orthogonalEdgeStyle;rounded=0;orthogonalLoop=1;jettySize=auto;html=1;exitX=0;exitY=0.5;exitDx=0;exitDy=0;entryX=1;entryY=0.5;entryDx=0;entryDy=0;fillColor=#f8cecc;strokeColor=#b85450;" parent="1" source="3E3HlsRtL0pauLYrI34w-25" target="3E3HlsRtL0pauLYrI34w-24" edge="1">
          <mxGeometry relative="1" as="geometry" />
        </mxCell>
        <mxCell id="3E3HlsRtL0pauLYrI34w-57" style="edgeStyle=orthogonalEdgeStyle;rounded=0;orthogonalLoop=1;jettySize=auto;html=1;exitX=1;exitY=0.5;exitDx=0;exitDy=0;entryX=0;entryY=0.5;entryDx=0;entryDy=0;fillColor=#f8cecc;strokeColor=#b85450;" parent="1" source="3E3HlsRtL0pauLYrI34w-25" target="3E3HlsRtL0pauLYrI34w-26" edge="1">
          <mxGeometry relative="1" as="geometry" />
        </mxCell>
        <mxCell id="3E3HlsRtL0pauLYrI34w-59" style="edgeStyle=orthogonalEdgeStyle;rounded=0;orthogonalLoop=1;jettySize=auto;html=1;exitX=0.5;exitY=0;exitDx=0;exitDy=0;entryX=0.5;entryY=1;entryDx=0;entryDy=0;fillColor=#f8cecc;strokeColor=#b85450;" parent="1" source="3E3HlsRtL0pauLYrI34w-25" target="3E3HlsRtL0pauLYrI34w-42" edge="1">
          <mxGeometry relative="1" as="geometry" />
        </mxCell>
        <mxCell id="3E3HlsRtL0pauLYrI34w-25" value="资金回调服务" style="rounded=0;whiteSpace=wrap;html=1;" parent="1" vertex="1">
          <mxGeometry x="1220" y="385" width="90" height="20" as="geometry" />
        </mxCell>
        <mxCell id="3E3HlsRtL0pauLYrI34w-26" value="账户" style="rounded=0;whiteSpace=wrap;html=1;" parent="1" vertex="1">
          <mxGeometry x="1400" y="385" width="90" height="20" as="geometry" />
        </mxCell>
        <mxCell id="3E3HlsRtL0pauLYrI34w-27" value="结算" style="rounded=0;whiteSpace=wrap;html=1;" parent="1" vertex="1">
          <mxGeometry x="968" y="476" width="70" height="20" as="geometry" />
        </mxCell>
        <mxCell id="3E3HlsRtL0pauLYrI34w-52" style="edgeStyle=orthogonalEdgeStyle;rounded=0;orthogonalLoop=1;jettySize=auto;html=1;exitX=0.5;exitY=0;exitDx=0;exitDy=0;entryX=0.5;entryY=1;entryDx=0;entryDy=0;fillColor=#f8cecc;strokeColor=#b85450;" parent="1" source="3E3HlsRtL0pauLYrI34w-28" target="3E3HlsRtL0pauLYrI34w-25" edge="1">
          <mxGeometry relative="1" as="geometry" />
        </mxCell>
        <mxCell id="3E3HlsRtL0pauLYrI34w-28" value="异步回调服务" style="rounded=0;whiteSpace=wrap;html=1;" parent="1" vertex="1">
          <mxGeometry x="1220" y="476" width="90" height="20" as="geometry" />
        </mxCell>
        <mxCell id="3E3HlsRtL0pauLYrI34w-31" value="2. 查结算规则" style="text;html=1;align=center;verticalAlign=middle;resizable=0;points=[];autosize=1;strokeColor=none;fillColor=none;" parent="1" vertex="1">
          <mxGeometry x="1030" y="124" width="100" height="30" as="geometry" />
        </mxCell>
        <mxCell id="3E3HlsRtL0pauLYrI34w-33" style="rounded=0;orthogonalLoop=1;jettySize=auto;html=1;exitX=0;exitY=0.5;exitDx=0;exitDy=0;entryX=1;entryY=0.5;entryDx=0;entryDy=0;" parent="1" source="3E3HlsRtL0pauLYrI34w-9" target="3E3HlsRtL0pauLYrI34w-2" edge="1">
          <mxGeometry relative="1" as="geometry" />
        </mxCell>
        <mxCell id="3E3HlsRtL0pauLYrI34w-34" value="4. 查计费规则" style="text;html=1;align=center;verticalAlign=middle;resizable=0;points=[];autosize=1;strokeColor=none;fillColor=none;" parent="1" vertex="1">
          <mxGeometry x="1016" y="203" width="100" height="30" as="geometry" />
        </mxCell>
        <mxCell id="3E3HlsRtL0pauLYrI34w-39" style="edgeStyle=orthogonalEdgeStyle;rounded=0;orthogonalLoop=1;jettySize=auto;html=1;exitX=0;exitY=0.5;exitDx=0;exitDy=0;exitPerimeter=0;" parent="1" source="3E3HlsRtL0pauLYrI34w-7" target="3E3HlsRtL0pauLYrI34w-12" edge="1">
          <mxGeometry relative="1" as="geometry" />
        </mxCell>
        <mxCell id="3E3HlsRtL0pauLYrI34w-7" value="" style="shape=cylinder3;whiteSpace=wrap;html=1;boundedLbl=1;backgroundOutline=1;size=15;rotation=-90;" parent="1" vertex="1">
          <mxGeometry x="1167.5000000000002" y="111" width="35" height="116.25" as="geometry" />
        </mxCell>
        <mxCell id="3E3HlsRtL0pauLYrI34w-8" value="结算处理队列" style="text;html=1;align=center;verticalAlign=middle;resizable=0;points=[];autosize=1;strokeColor=none;fillColor=none;fontSize=10;" parent="1" vertex="1">
          <mxGeometry x="1150" y="154" width="80" height="30" as="geometry" />
        </mxCell>
        <mxCell id="3E3HlsRtL0pauLYrI34w-61" style="edgeStyle=orthogonalEdgeStyle;rounded=0;orthogonalLoop=1;jettySize=auto;html=1;exitX=0.5;exitY=0;exitDx=0;exitDy=0;entryX=0.5;entryY=1;entryDx=0;entryDy=0;fillColor=#f8cecc;strokeColor=#b85450;" parent="1" source="3E3HlsRtL0pauLYrI34w-42" target="3E3HlsRtL0pauLYrI34w-13" edge="1">
          <mxGeometry relative="1" as="geometry" />
        </mxCell>
        <mxCell id="3E3HlsRtL0pauLYrI34w-42" value="结算回调" style="rounded=0;whiteSpace=wrap;html=1;" parent="1" vertex="1">
          <mxGeometry x="1280" y="285" width="90" height="20" as="geometry" />
        </mxCell>
        <mxCell id="3E3HlsRtL0pauLYrI34w-43" style="edgeStyle=orthogonalEdgeStyle;rounded=0;orthogonalLoop=1;jettySize=auto;html=1;exitX=1;exitY=0.5;exitDx=0;exitDy=0;entryX=0;entryY=0.5;entryDx=0;entryDy=0;entryPerimeter=0;" parent="1" source="3E3HlsRtL0pauLYrI34w-13" target="3E3HlsRtL0pauLYrI34w-14" edge="1">
          <mxGeometry relative="1" as="geometry" />
        </mxCell>
        <mxCell id="3E3HlsRtL0pauLYrI34w-44" value="3. 创建结算单据和实例" style="text;html=1;align=center;verticalAlign=middle;resizable=0;points=[];autosize=1;strokeColor=none;fillColor=none;" parent="1" vertex="1">
          <mxGeometry x="1220" y="91" width="140" height="30" as="geometry" />
        </mxCell>
        <mxCell id="3E3HlsRtL0pauLYrI34w-45" value="5. 创建结算收付" style="text;html=1;align=center;verticalAlign=middle;resizable=0;points=[];autosize=1;strokeColor=none;fillColor=none;" parent="1" vertex="1">
          <mxGeometry x="1230" y="201" width="110" height="30" as="geometry" />
        </mxCell>
        <mxCell id="3E3HlsRtL0pauLYrI34w-47" value="6. 发起结算付款" style="text;html=1;align=center;verticalAlign=middle;resizable=0;points=[];autosize=1;strokeColor=none;fillColor=none;" parent="1" vertex="1">
          <mxGeometry x="991" y="334" width="110" height="30" as="geometry" />
        </mxCell>
        <mxCell id="3E3HlsRtL0pauLYrI34w-49" value="7. 记录" style="text;html=1;align=center;verticalAlign=middle;resizable=0;points=[];autosize=1;strokeColor=none;fillColor=none;" parent="1" vertex="1">
          <mxGeometry x="990" y="363" width="60" height="30" as="geometry" />
        </mxCell>
        <mxCell id="3E3HlsRtL0pauLYrI34w-51" value="8. 调用CFT" style="text;html=1;align=center;verticalAlign=middle;resizable=0;points=[];autosize=1;strokeColor=none;fillColor=none;" parent="1" vertex="1">
          <mxGeometry x="888" y="410" width="80" height="30" as="geometry" />
        </mxCell>
        <mxCell id="3E3HlsRtL0pauLYrI34w-53" value="9. CFT回调" style="text;html=1;align=center;verticalAlign=middle;resizable=0;points=[];autosize=1;strokeColor=none;fillColor=none;" parent="1" vertex="1">
          <mxGeometry x="1260" y="413" width="80" height="30" as="geometry" />
        </mxCell>
        <mxCell id="3E3HlsRtL0pauLYrI34w-55" value="10. 更新状态" style="text;html=1;align=center;verticalAlign=middle;resizable=0;points=[];autosize=1;strokeColor=none;fillColor=none;" parent="1" vertex="1">
          <mxGeometry x="1128" y="370" width="90" height="30" as="geometry" />
        </mxCell>
        <mxCell id="3E3HlsRtL0pauLYrI34w-58" value="11. 更新账户" style="text;html=1;align=center;verticalAlign=middle;resizable=0;points=[];autosize=1;strokeColor=none;fillColor=none;" parent="1" vertex="1">
          <mxGeometry x="1306" y="371" width="90" height="30" as="geometry" />
        </mxCell>
        <mxCell id="3E3HlsRtL0pauLYrI34w-60" value="12. 回调业务层" style="text;html=1;align=center;verticalAlign=middle;resizable=0;points=[];autosize=1;strokeColor=none;fillColor=none;" parent="1" vertex="1">
          <mxGeometry x="1258" y="311" width="100" height="30" as="geometry" />
        </mxCell>
        <mxCell id="3E3HlsRtL0pauLYrI34w-62" value="13. 更新结算状态" style="text;html=1;align=center;verticalAlign=middle;resizable=0;points=[];autosize=1;strokeColor=none;fillColor=none;" parent="1" vertex="1">
          <mxGeometry x="1315" y="243" width="120" height="30" as="geometry" />
        </mxCell>
        <mxCell id="3E3HlsRtL0pauLYrI34w-66" value="结算核心层" style="text;html=1;align=center;verticalAlign=middle;resizable=0;points=[];autosize=1;strokeColor=none;fillColor=none;" parent="1" vertex="1">
          <mxGeometry x="870" y="81" width="80" height="30" as="geometry" />
        </mxCell>
        <mxCell id="3E3HlsRtL0pauLYrI34w-67" value="资金层" style="text;html=1;align=center;verticalAlign=middle;resizable=0;points=[];autosize=1;strokeColor=none;fillColor=none;" parent="1" vertex="1">
          <mxGeometry x="870" y="369" width="60" height="30" as="geometry" />
        </mxCell>
        <mxCell id="3E3HlsRtL0pauLYrI34w-68" value="财付通" style="text;html=1;align=center;verticalAlign=middle;resizable=0;points=[];autosize=1;strokeColor=none;fillColor=none;" parent="1" vertex="1">
          <mxGeometry x="875" y="466" width="60" height="30" as="geometry" />
        </mxCell>
        <mxCell id="3E3HlsRtL0pauLYrI34w-69" value="结算系统架构图" style="text;html=1;align=center;verticalAlign=middle;resizable=0;points=[];autosize=1;strokeColor=none;fillColor=none;fontSize=18;fontStyle=1" parent="1" vertex="1">
          <mxGeometry x="1120" y="520" width="150" height="40" as="geometry" />
        </mxCell>
        <mxCell id="3E3HlsRtL0pauLYrI34w-89" style="edgeStyle=orthogonalEdgeStyle;rounded=0;orthogonalLoop=1;jettySize=auto;html=1;exitX=0.25;exitY=1;exitDx=0;exitDy=0;entryX=0.5;entryY=0;entryDx=0;entryDy=0;fillColor=#60a917;strokeColor=#2D7600;" parent="1" source="3E3HlsRtL0pauLYrI34w-70" target="3E3HlsRtL0pauLYrI34w-88" edge="1">
          <mxGeometry relative="1" as="geometry" />
        </mxCell>
        <mxCell id="3E3HlsRtL0pauLYrI34w-107" style="edgeStyle=orthogonalEdgeStyle;rounded=0;orthogonalLoop=1;jettySize=auto;html=1;exitX=1;exitY=0.25;exitDx=0;exitDy=0;entryX=1;entryY=0.5;entryDx=0;entryDy=0;fillColor=#ffe6cc;strokeColor=#d79b00;" parent="1" source="3E3HlsRtL0pauLYrI34w-70" target="3E3HlsRtL0pauLYrI34w-73" edge="1">
          <mxGeometry relative="1" as="geometry">
            <Array as="points">
              <mxPoint x="1530" y="773" />
              <mxPoint x="1530" y="663" />
            </Array>
          </mxGeometry>
        </mxCell>
        <mxCell id="3E3HlsRtL0pauLYrI34w-112" style="edgeStyle=orthogonalEdgeStyle;rounded=0;orthogonalLoop=1;jettySize=auto;html=1;exitX=0.25;exitY=0;exitDx=0;exitDy=0;entryX=0.5;entryY=0;entryDx=0;entryDy=0;fillColor=#dae8fc;strokeColor=#6c8ebf;" parent="1" source="3E3HlsRtL0pauLYrI34w-70" target="3E3HlsRtL0pauLYrI34w-99" edge="1">
          <mxGeometry relative="1" as="geometry">
            <Array as="points">
              <mxPoint x="1340" y="650" />
              <mxPoint x="1085" y="650" />
            </Array>
          </mxGeometry>
        </mxCell>
        <mxCell id="3E3HlsRtL0pauLYrI34w-70" value="" style="rounded=1;whiteSpace=wrap;html=1;" parent="1" vertex="1">
          <mxGeometry x="1307" y="740" width="130" height="130" as="geometry" />
        </mxCell>
        <mxCell id="3E3HlsRtL0pauLYrI34w-71" value="商户&lt;div&gt;的钱&lt;/div&gt;" style="rounded=0;whiteSpace=wrap;html=1;" parent="1" vertex="1">
          <mxGeometry x="1315.5" y="785" width="37" height="60" as="geometry" />
        </mxCell>
        <mxCell id="3E3HlsRtL0pauLYrI34w-76" style="edgeStyle=orthogonalEdgeStyle;rounded=0;orthogonalLoop=1;jettySize=auto;html=1;exitX=0.5;exitY=1;exitDx=0;exitDy=0;entryX=0.5;entryY=0;entryDx=0;entryDy=0;fillColor=#dae8fc;strokeColor=#6c8ebf;" parent="1" source="3E3HlsRtL0pauLYrI34w-72" target="3E3HlsRtL0pauLYrI34w-75" edge="1">
          <mxGeometry relative="1" as="geometry" />
        </mxCell>
        <mxCell id="3E3HlsRtL0pauLYrI34w-72" value="平台的钱（待收取的手续费）" style="rounded=0;whiteSpace=wrap;html=1;" parent="1" vertex="1">
          <mxGeometry x="1358.5" y="780" width="64.5" height="70" as="geometry" />
        </mxCell>
        <mxCell id="3E3HlsRtL0pauLYrI34w-74" style="edgeStyle=orthogonalEdgeStyle;rounded=0;orthogonalLoop=1;jettySize=auto;html=1;exitX=0.5;exitY=1;exitDx=0;exitDy=0;entryX=0.75;entryY=0;entryDx=0;entryDy=0;fillColor=#dae8fc;strokeColor=#6c8ebf;" parent="1" source="3E3HlsRtL0pauLYrI34w-73" target="3E3HlsRtL0pauLYrI34w-70" edge="1">
          <mxGeometry relative="1" as="geometry" />
        </mxCell>
        <mxCell id="3E3HlsRtL0pauLYrI34w-73" value="用户账户" style="whiteSpace=wrap;html=1;" parent="1" vertex="1">
          <mxGeometry x="1365" y="647.5" width="80" height="30" as="geometry" />
        </mxCell>
        <mxCell id="3E3HlsRtL0pauLYrI34w-106" style="edgeStyle=orthogonalEdgeStyle;rounded=0;orthogonalLoop=1;jettySize=auto;html=1;exitX=1;exitY=0.5;exitDx=0;exitDy=0;entryX=1;entryY=0.75;entryDx=0;entryDy=0;fillColor=#ffe6cc;strokeColor=#d79b00;" parent="1" source="3E3HlsRtL0pauLYrI34w-75" target="3E3HlsRtL0pauLYrI34w-70" edge="1">
          <mxGeometry relative="1" as="geometry">
            <Array as="points">
              <mxPoint x="1530" y="945" />
              <mxPoint x="1530" y="838" />
            </Array>
          </mxGeometry>
        </mxCell>
        <mxCell id="3E3HlsRtL0pauLYrI34w-75" value="平台手续费收入账户" style="whiteSpace=wrap;html=1;" parent="1" vertex="1">
          <mxGeometry x="1387" y="930" width="80" height="30" as="geometry" />
        </mxCell>
        <mxCell id="3E3HlsRtL0pauLYrI34w-87" style="edgeStyle=orthogonalEdgeStyle;rounded=0;orthogonalLoop=1;jettySize=auto;html=1;exitX=1;exitY=0.75;exitDx=0;exitDy=0;entryX=0;entryY=0.75;entryDx=0;entryDy=0;fillColor=#60a917;strokeColor=#2D7600;" parent="1" source="3E3HlsRtL0pauLYrI34w-77" target="3E3HlsRtL0pauLYrI34w-70" edge="1">
          <mxGeometry relative="1" as="geometry" />
        </mxCell>
        <mxCell id="3E3HlsRtL0pauLYrI34w-93" style="edgeStyle=orthogonalEdgeStyle;rounded=0;orthogonalLoop=1;jettySize=auto;html=1;exitX=1;exitY=0.25;exitDx=0;exitDy=0;entryX=0;entryY=0.25;entryDx=0;entryDy=0;fillColor=#ffe6cc;strokeColor=#d79b00;" parent="1" source="3E3HlsRtL0pauLYrI34w-77" target="3E3HlsRtL0pauLYrI34w-70" edge="1">
          <mxGeometry relative="1" as="geometry" />
        </mxCell>
        <mxCell id="3E3HlsRtL0pauLYrI34w-77" value="" style="rounded=1;whiteSpace=wrap;html=1;" parent="1" vertex="1">
          <mxGeometry x="940" y="800" width="180" height="80" as="geometry" />
        </mxCell>
        <mxCell id="3E3HlsRtL0pauLYrI34w-78" value="冻结户" style="rounded=0;whiteSpace=wrap;html=1;" parent="1" vertex="1">
          <mxGeometry x="945" y="831.5" width="52" height="35" as="geometry" />
        </mxCell>
        <mxCell id="3E3HlsRtL0pauLYrI34w-79" value="可用余额" style="rounded=0;whiteSpace=wrap;html=1;" parent="1" vertex="1">
          <mxGeometry x="1070" y="829" width="43" height="40" as="geometry" />
        </mxCell>
        <mxCell id="3E3HlsRtL0pauLYrI34w-81" value="" style="shape=flexArrow;endArrow=classic;startArrow=classic;html=1;rounded=0;" parent="1" edge="1">
          <mxGeometry width="100" height="100" relative="1" as="geometry">
            <mxPoint x="1001" y="848.5" as="sourcePoint" />
            <mxPoint x="1064" y="849" as="targetPoint" />
          </mxGeometry>
        </mxCell>
        <mxCell id="3E3HlsRtL0pauLYrI34w-86" style="edgeStyle=orthogonalEdgeStyle;rounded=0;orthogonalLoop=1;jettySize=auto;html=1;exitX=0.5;exitY=0;exitDx=0;exitDy=0;fillColor=#60a917;strokeColor=#2D7600;" parent="1" source="3E3HlsRtL0pauLYrI34w-82" target="3E3HlsRtL0pauLYrI34w-77" edge="1">
          <mxGeometry relative="1" as="geometry" />
        </mxCell>
        <mxCell id="3E3HlsRtL0pauLYrI34w-82" value="企业付款/企业红包/发券处理" style="whiteSpace=wrap;html=1;" parent="1" vertex="1">
          <mxGeometry x="980" y="920" width="100" height="40" as="geometry" />
        </mxCell>
        <mxCell id="3E3HlsRtL0pauLYrI34w-85" style="edgeStyle=orthogonalEdgeStyle;rounded=0;orthogonalLoop=1;jettySize=auto;html=1;exitX=0.5;exitY=0;exitDx=0;exitDy=0;entryX=0.5;entryY=1;entryDx=0;entryDy=0;fillColor=#60a917;strokeColor=#2D7600;" parent="1" source="3E3HlsRtL0pauLYrI34w-84" target="3E3HlsRtL0pauLYrI34w-82" edge="1">
          <mxGeometry relative="1" as="geometry" />
        </mxCell>
        <mxCell id="3E3HlsRtL0pauLYrI34w-84" value="&lt;span style=&quot;text-wrap: nowrap;&quot;&gt;1. 非交易支出请求&lt;/span&gt;" style="whiteSpace=wrap;html=1;strokeColor=none;" parent="1" vertex="1">
          <mxGeometry x="970" y="1000" width="120" height="30" as="geometry" />
        </mxCell>
        <mxCell id="3E3HlsRtL0pauLYrI34w-88" value="银行/零钱/其他账户" style="whiteSpace=wrap;html=1;" parent="1" vertex="1">
          <mxGeometry x="1272" y="930" width="80" height="30" as="geometry" />
        </mxCell>
        <mxCell id="3E3HlsRtL0pauLYrI34w-90" value="2. -可用余额" style="text;html=1;align=center;verticalAlign=middle;resizable=0;points=[];autosize=1;strokeColor=none;fillColor=none;" parent="1" vertex="1">
          <mxGeometry x="1020" y="887" width="90" height="30" as="geometry" />
        </mxCell>
        <mxCell id="3E3HlsRtL0pauLYrI34w-91" value="3. -可用余额" style="text;html=1;align=center;verticalAlign=middle;resizable=0;points=[];autosize=1;strokeColor=none;fillColor=none;" parent="1" vertex="1">
          <mxGeometry x="1130" y="860" width="90" height="30" as="geometry" />
        </mxCell>
        <mxCell id="3E3HlsRtL0pauLYrI34w-92" value="4. 企业付款/&lt;div&gt;发券/企业红包&lt;/div&gt;" style="text;html=1;align=center;verticalAlign=middle;resizable=0;points=[];autosize=1;strokeColor=none;fillColor=none;" parent="1" vertex="1">
          <mxGeometry x="1222" y="882" width="100" height="40" as="geometry" />
        </mxCell>
        <mxCell id="3E3HlsRtL0pauLYrI34w-95" style="edgeStyle=orthogonalEdgeStyle;rounded=0;orthogonalLoop=1;jettySize=auto;html=1;exitX=0.5;exitY=1;exitDx=0;exitDy=0;entryX=0.25;entryY=0;entryDx=0;entryDy=0;fillColor=#ffe6cc;strokeColor=#d79b00;" parent="1" source="3E3HlsRtL0pauLYrI34w-94" target="3E3HlsRtL0pauLYrI34w-77" edge="1">
          <mxGeometry relative="1" as="geometry" />
        </mxCell>
        <mxCell id="3E3HlsRtL0pauLYrI34w-94" value="退款受理" style="whiteSpace=wrap;html=1;" parent="1" vertex="1">
          <mxGeometry x="925" y="713" width="80" height="30" as="geometry" />
        </mxCell>
        <mxCell id="3E3HlsRtL0pauLYrI34w-97" style="edgeStyle=orthogonalEdgeStyle;rounded=0;orthogonalLoop=1;jettySize=auto;html=1;exitX=0.5;exitY=1;exitDx=0;exitDy=0;fillColor=#ffe6cc;strokeColor=#d79b00;" parent="1" source="3E3HlsRtL0pauLYrI34w-96" target="3E3HlsRtL0pauLYrI34w-94" edge="1">
          <mxGeometry relative="1" as="geometry" />
        </mxCell>
        <mxCell id="3E3HlsRtL0pauLYrI34w-96" value="&lt;span style=&quot;text-wrap: nowrap;&quot;&gt;1. 退款请求&lt;/span&gt;" style="whiteSpace=wrap;html=1;strokeColor=none;" parent="1" vertex="1">
          <mxGeometry x="922" y="641" width="86" height="30" as="geometry" />
        </mxCell>
        <mxCell id="3E3HlsRtL0pauLYrI34w-98" value="2. -可用余额" style="text;html=1;align=center;verticalAlign=middle;resizable=0;points=[];autosize=1;strokeColor=none;fillColor=none;" parent="1" vertex="1">
          <mxGeometry x="875" y="748" width="90" height="30" as="geometry" />
        </mxCell>
        <mxCell id="3E3HlsRtL0pauLYrI34w-100" style="edgeStyle=orthogonalEdgeStyle;rounded=0;orthogonalLoop=1;jettySize=auto;html=1;exitX=0.5;exitY=1;exitDx=0;exitDy=0;entryX=0.75;entryY=0;entryDx=0;entryDy=0;fillColor=#dae8fc;strokeColor=#6c8ebf;" parent="1" source="3E3HlsRtL0pauLYrI34w-99" target="3E3HlsRtL0pauLYrI34w-77" edge="1">
          <mxGeometry relative="1" as="geometry" />
        </mxCell>
        <mxCell id="3E3HlsRtL0pauLYrI34w-99" value="结算受理" style="whiteSpace=wrap;html=1;" parent="1" vertex="1">
          <mxGeometry x="1045" y="713" width="80" height="30" as="geometry" />
        </mxCell>
        <mxCell id="3E3HlsRtL0pauLYrI34w-101" value="4. +可用余额" style="text;html=1;align=center;verticalAlign=middle;resizable=0;points=[];autosize=1;strokeColor=none;fillColor=none;" parent="1" vertex="1">
          <mxGeometry x="1005" y="748" width="90" height="30" as="geometry" />
        </mxCell>
        <mxCell id="3E3HlsRtL0pauLYrI34w-102" value="账户" style="text;html=1;align=center;verticalAlign=middle;resizable=0;points=[];autosize=1;strokeColor=none;fillColor=none;" parent="1" vertex="1">
          <mxGeometry x="1008" y="797.5" width="50" height="30" as="geometry" />
        </mxCell>
        <mxCell id="3E3HlsRtL0pauLYrI34w-103" value="商户待结算账户" style="text;html=1;align=center;verticalAlign=middle;resizable=0;points=[];autosize=1;strokeColor=none;fillColor=none;" parent="1" vertex="1">
          <mxGeometry x="1317" y="747" width="110" height="30" as="geometry" />
        </mxCell>
        <mxCell id="3E3HlsRtL0pauLYrI34w-104" value="3. -可用余额" style="text;html=1;align=center;verticalAlign=middle;resizable=0;points=[];autosize=1;strokeColor=none;fillColor=none;" parent="1" vertex="1">
          <mxGeometry x="1125" y="790" width="90" height="30" as="geometry" />
        </mxCell>
        <mxCell id="3E3HlsRtL0pauLYrI34w-105" value="5. 结算&lt;div&gt;延迟批量入账&lt;/div&gt;" style="text;html=1;align=center;verticalAlign=middle;resizable=0;points=[];autosize=1;strokeColor=none;fillColor=none;" parent="1" vertex="1">
          <mxGeometry x="1420" y="877" width="100" height="40" as="geometry" />
        </mxCell>
        <mxCell id="3E3HlsRtL0pauLYrI34w-108" value="1. 用户支付" style="text;html=1;align=center;verticalAlign=middle;resizable=0;points=[];autosize=1;strokeColor=none;fillColor=none;" parent="1" vertex="1">
          <mxGeometry x="1397" y="677.5" width="80" height="30" as="geometry" />
        </mxCell>
        <mxCell id="3E3HlsRtL0pauLYrI34w-109" value="4.2 合并退款&lt;div&gt;给用户&lt;/div&gt;" style="text;html=1;align=center;verticalAlign=middle;resizable=0;points=[];autosize=1;strokeColor=none;fillColor=none;" parent="1" vertex="1">
          <mxGeometry x="1527" y="700" width="90" height="40" as="geometry" />
        </mxCell>
        <mxCell id="3E3HlsRtL0pauLYrI34w-110" value="4.1 退手续费" style="text;html=1;align=center;verticalAlign=middle;resizable=0;points=[];autosize=1;strokeColor=none;fillColor=none;" parent="1" vertex="1">
          <mxGeometry x="1527" y="877" width="90" height="30" as="geometry" />
        </mxCell>
        <mxCell id="3E3HlsRtL0pauLYrI34w-113" value="2. 支付回调" style="text;html=1;align=center;verticalAlign=middle;resizable=0;points=[];autosize=1;strokeColor=none;fillColor=none;" parent="1" vertex="1">
          <mxGeometry x="1260" y="678" width="80" height="30" as="geometry" />
        </mxCell>
        <mxCell id="3E3HlsRtL0pauLYrI34w-114" value="3. 通知结算" style="text;html=1;align=center;verticalAlign=middle;resizable=0;points=[];autosize=1;strokeColor=none;fillColor=none;" parent="1" vertex="1">
          <mxGeometry x="1080" y="670" width="80" height="30" as="geometry" />
        </mxCell>
        <mxCell id="3E3HlsRtL0pauLYrI34w-115" value="" style="endArrow=none;html=1;rounded=0;dashed=1;" parent="1" edge="1">
          <mxGeometry width="50" height="50" relative="1" as="geometry">
            <mxPoint x="1220" y="1010" as="sourcePoint" />
            <mxPoint x="1220" y="590" as="targetPoint" />
          </mxGeometry>
        </mxCell>
        <mxCell id="gZFIswUFL3Inhh1_GQlH-7" style="edgeStyle=orthogonalEdgeStyle;rounded=0;orthogonalLoop=1;jettySize=auto;html=1;exitX=1;exitY=0.5;exitDx=0;exitDy=0;entryX=0;entryY=0.5;entryDx=0;entryDy=0;" edge="1" parent="1" source="gZFIswUFL3Inhh1_GQlH-3" target="gZFIswUFL3Inhh1_GQlH-5">
          <mxGeometry relative="1" as="geometry" />
        </mxCell>
        <mxCell id="gZFIswUFL3Inhh1_GQlH-3" value="现金" style="image;html=1;image=img/lib/clip_art/finance/Coins_128x128.png" vertex="1" parent="1">
          <mxGeometry x="1920" y="66" width="80" height="80" as="geometry" />
        </mxCell>
        <mxCell id="gZFIswUFL3Inhh1_GQlH-6" style="edgeStyle=orthogonalEdgeStyle;rounded=0;orthogonalLoop=1;jettySize=auto;html=1;exitX=1;exitY=0.5;exitDx=0;exitDy=0;entryX=0;entryY=0.5;entryDx=0;entryDy=0;" edge="1" parent="1" source="gZFIswUFL3Inhh1_GQlH-4" target="gZFIswUFL3Inhh1_GQlH-3">
          <mxGeometry relative="1" as="geometry" />
        </mxCell>
        <mxCell id="gZFIswUFL3Inhh1_GQlH-4" value="买家" style="image;html=1;image=img/lib/clip_art/people/Suit_Man_128x128.png" vertex="1" parent="1">
          <mxGeometry x="1760" y="66" width="80" height="80" as="geometry" />
        </mxCell>
        <mxCell id="gZFIswUFL3Inhh1_GQlH-5" value="卖家" style="image;html=1;image=img/lib/clip_art/people/Farmer_Man_Black_128x128.png" vertex="1" parent="1">
          <mxGeometry x="2080" y="66" width="80" height="80" as="geometry" />
        </mxCell>
        <mxCell id="gZFIswUFL3Inhh1_GQlH-8" value="买家" style="image;html=1;image=img/lib/clip_art/people/Suit_Man_128x128.png" vertex="1" parent="1">
          <mxGeometry x="1760" y="270" width="80" height="80" as="geometry" />
        </mxCell>
        <mxCell id="gZFIswUFL3Inhh1_GQlH-9" value="卖家" style="image;html=1;image=img/lib/clip_art/people/Farmer_Man_Black_128x128.png" vertex="1" parent="1">
          <mxGeometry x="2080" y="270.25" width="80" height="80" as="geometry" />
        </mxCell>
        <mxCell id="gZFIswUFL3Inhh1_GQlH-12" style="edgeStyle=orthogonalEdgeStyle;rounded=0;orthogonalLoop=1;jettySize=auto;html=1;exitX=0.91;exitY=0.5;exitDx=0;exitDy=0;exitPerimeter=0;" edge="1" parent="1" source="gZFIswUFL3Inhh1_GQlH-10" target="gZFIswUFL3Inhh1_GQlH-9">
          <mxGeometry relative="1" as="geometry" />
        </mxCell>
        <mxCell id="gZFIswUFL3Inhh1_GQlH-10" value="银行" style="shape=mxgraph.signs.travel.museum;html=1;pointerEvents=1;fillColor=#000000;strokeColor=none;verticalLabelPosition=bottom;verticalAlign=top;align=center;sketch=0;" vertex="1" parent="1">
          <mxGeometry x="1920" y="263" width="98" height="94" as="geometry" />
        </mxCell>
        <mxCell id="gZFIswUFL3Inhh1_GQlH-11" style="edgeStyle=orthogonalEdgeStyle;rounded=0;orthogonalLoop=1;jettySize=auto;html=1;exitX=1;exitY=0.5;exitDx=0;exitDy=0;entryX=0.09;entryY=0.5;entryDx=0;entryDy=0;entryPerimeter=0;" edge="1" parent="1" source="gZFIswUFL3Inhh1_GQlH-8" target="gZFIswUFL3Inhh1_GQlH-10">
          <mxGeometry relative="1" as="geometry" />
        </mxCell>
        <mxCell id="gZFIswUFL3Inhh1_GQlH-13" value="存入现金" style="text;html=1;align=center;verticalAlign=middle;resizable=0;points=[];autosize=1;strokeColor=none;fillColor=none;" vertex="1" parent="1">
          <mxGeometry x="1835" y="278" width="70" height="30" as="geometry" />
        </mxCell>
        <mxCell id="gZFIswUFL3Inhh1_GQlH-14" value="现金转账" style="text;html=1;align=center;verticalAlign=middle;resizable=0;points=[];autosize=1;strokeColor=none;fillColor=none;" vertex="1" parent="1">
          <mxGeometry x="2005" y="288" width="70" height="30" as="geometry" />
        </mxCell>
        <mxCell id="gZFIswUFL3Inhh1_GQlH-22" style="edgeStyle=orthogonalEdgeStyle;rounded=0;orthogonalLoop=1;jettySize=auto;html=1;exitX=1;exitY=0.5;exitDx=0;exitDy=0;entryX=0;entryY=0.5;entryDx=0;entryDy=0;" edge="1" parent="1" source="gZFIswUFL3Inhh1_GQlH-15" target="gZFIswUFL3Inhh1_GQlH-17">
          <mxGeometry relative="1" as="geometry" />
        </mxCell>
        <mxCell id="gZFIswUFL3Inhh1_GQlH-24" value="支付" style="edgeLabel;html=1;align=center;verticalAlign=middle;resizable=0;points=[];" vertex="1" connectable="0" parent="gZFIswUFL3Inhh1_GQlH-22">
          <mxGeometry x="0.05" y="1" relative="1" as="geometry">
            <mxPoint as="offset" />
          </mxGeometry>
        </mxCell>
        <mxCell id="gZFIswUFL3Inhh1_GQlH-15" value="用户" style="image;html=1;image=img/lib/clip_art/people/Suit_Man_128x128.png" vertex="1" parent="1">
          <mxGeometry x="1760" y="446" width="80" height="80" as="geometry" />
        </mxCell>
        <mxCell id="gZFIswUFL3Inhh1_GQlH-16" value="卖家" style="image;html=1;image=img/lib/clip_art/people/Farmer_Man_Black_128x128.png" vertex="1" parent="1">
          <mxGeometry x="2090" y="446" width="80" height="80" as="geometry" />
        </mxCell>
        <mxCell id="gZFIswUFL3Inhh1_GQlH-19" style="edgeStyle=orthogonalEdgeStyle;rounded=0;orthogonalLoop=1;jettySize=auto;html=1;exitX=0.5;exitY=1;exitDx=0;exitDy=0;" edge="1" parent="1" source="gZFIswUFL3Inhh1_GQlH-17" target="gZFIswUFL3Inhh1_GQlH-18">
          <mxGeometry relative="1" as="geometry" />
        </mxCell>
        <mxCell id="gZFIswUFL3Inhh1_GQlH-20" value="签约" style="edgeLabel;html=1;align=center;verticalAlign=middle;resizable=0;points=[];" vertex="1" connectable="0" parent="gZFIswUFL3Inhh1_GQlH-19">
          <mxGeometry x="-0.2601" y="2" relative="1" as="geometry">
            <mxPoint as="offset" />
          </mxGeometry>
        </mxCell>
        <mxCell id="gZFIswUFL3Inhh1_GQlH-23" style="edgeStyle=orthogonalEdgeStyle;rounded=0;orthogonalLoop=1;jettySize=auto;html=1;exitX=1;exitY=0.5;exitDx=0;exitDy=0;" edge="1" parent="1" source="gZFIswUFL3Inhh1_GQlH-17" target="gZFIswUFL3Inhh1_GQlH-16">
          <mxGeometry relative="1" as="geometry" />
        </mxCell>
        <mxCell id="gZFIswUFL3Inhh1_GQlH-25" value="结转" style="edgeLabel;html=1;align=center;verticalAlign=middle;resizable=0;points=[];" vertex="1" connectable="0" parent="gZFIswUFL3Inhh1_GQlH-23">
          <mxGeometry x="-0.0244" y="1" relative="1" as="geometry">
            <mxPoint as="offset" />
          </mxGeometry>
        </mxCell>
        <mxCell id="gZFIswUFL3Inhh1_GQlH-17" value="" style="shape=image;verticalLabelPosition=bottom;labelBackgroundColor=default;verticalAlign=top;aspect=fixed;imageAspect=0;image=data:image/jpeg,/9j/4AAQSkZJRgABAQAAAQABAAD/2wCEAAkGBwgHBgkIBwgKCgkLDRYPDQwMDRsUFRAWIB0iIiAdHx8kKDQsJCYxJx8fLT0tMTU3Ojo6Iys/RD84QzQ5OjcBCgoKDQwNGg8PGjclHyU3Nzc3Nzc3Nzc3Nzc3Nzc3Nzc3Nzc3Nzc3Nzc3Nzc3Nzc3Nzc3Nzc3Nzc3Nzc3Nzc3N//AABEIAMAAzAMBEQACEQEDEQH/xAAbAAEAAgMBAQAAAAAAAAAAAAAABgcBBAUDAv/EAEUQAAEDAwEEBQcICAUFAAAAAAEAAgMEBREGEiExQRNRYXHBByIyNXOBkRRCQ1OhsdHhFSMkUmJjcnQlM5Pw8RY0NkSS/8QAGgEBAAMBAQEAAAAAAAAAAAAAAAMEBQECBv/EACwRAQACAgEDAwMDBQEBAAAAAAABAgMEERIxMyFBgRNhcQUiURQjMkJSFTT/2gAMAwEAAhEDEQA/ALuc4NaXOcABxJQ7d1fap1XJUyuo7a8sgGQ6Tm7rx1LL2dqZnoqydrcm09FERVJn9xcBAQEBAQEBAQMoCAgIA3ICAgICAhwc880G3bbjU2ycTUkmwRxbyd3hSY8tsc81SY8tsU81Wfp6+Q3qkEjPMnbukjJ4Hs7Fr4c0Za8w29fPXNXn3dfPap0/CG62vMtPRto4X4fN6RHEN/NUtzN0V6Y91Dez9FemPdAOWFlMcR0QEBAQEBAQEBAQEBAQEBAQEBAQEBdG/ZblLa7hHUxOOM4kHW3mpMOScd+U2HLOO8StSKqdLE2Rsg2XDI3DetysxMct+tomOVZ6rqPlF9qR82I7Dfd/ysbatzllh7durNP2chV1YQEBAQEBAQF0FwEBAQEBAQEBAQEBAQEDvT7HHPosjSFSKixQmT0oyWH3cPsW1p26sUS3NO/VihB9QjZvte0cp3LKzeSzJz+W35c9RIRAQEBB6QwzVDwyCJ8jupgyV6rWbekPVa2tPEQ7lHo+81QBMDIGnnK/wCsU1Mtlimlls6kPk/l3dPcGjsZF+JU0aE+9k8fp0+9myPJ/T86+f/4C9f0Ef9JP/Or/ANS85PJ+36G4PH9UYK5Oj/Fnmf07+LOdVaGucW+nkhnHeWH7VHbSyR2Q20MsdvVw621V9AT8spJIwPnY3fFVrYslO8K9sOSneGmo0XIuguAgICAgICAgIC6LF0DEH2In+e7wWroeL5bGh4vlC9Rev7j/AHDlnZvJZm5/Lb8ucokIgLo+oY3zSsjiY573HAawZJTiZniHYiZniqa2XQ+0GzXVxB+pYfvKv4tLn1u0cOh75EwoqCmooujpYGRNH7o3/FX60rSP2w0aY6U/xhtDgvb2ygICAg+HsDhsuaHA8QRlcmOXJjlHrto+3120+FnyaY/Oj4e8Ktl1KX9Y9FXLp47+sRxKBXix1tnkIqo8x5wJW+ifwWZlwWxz69mVlwXxT+5zlEhEBAQEBAQEBAXRZHk99QO9u/wWpozxi+WxoeL5Qa/Em91xPEzOWfm8lmZn8tvy0FEiEGzb6Kevq2U1Kzbkf8AOs9i90pN7dMPdMc5LdMLP09YKezwDAElS4efKRv7h2LYw4K4o+7bwa9cUfd2RuU6wygICAgICAgwUHlPTx1ETopo2vY4YLXbwV5msWjiXJrFo4tCudVaYda81VEHPpCfOHEx/ksvY1px/ur2Y+zqfT/dTsjKqKYuOCAgICAgIC7HcT7Qr3NshA+ud4LS1PE2NDxfKIX311W+2cqObyWZmfy2/LQUSJlrXOdssGXZxjtXeJnsd54haWlLHHaaIOkGaqUAyO5jsWxrYIxV+7c1cEYq/d3gMBWVoJwg512vdBaQPlk2y48GAZcfcosmamPvKHLnpi/ylz6LWFqq6hsAfJE5xw0yNwCe9R028d54RU3cV54SEHIVlbZQEGtWVsFFA6aqkEcbeJK82vFI5s8XvWkc2cIa3tHS7GZsA+nsblW/rcXPCr/XYueEhpqiKqhbLA8PjeMtcOatVmLRzC5W0WjmHquuvOWNsjC14DmkYIPNJiJ9JJjn0lVurLIbPXZiyaaYkx/wnm1Y2zh+lb07MPawfRt6dpcNV1UXAQEBAQEBdjuJ7offZTu+md4LS1PE2NDxfKJaiH+PXDH17lRzeSzNz+W35c/vUSFJdCWwVt1dUStzFTAOGebzwVzTx9V+Z9l3Sxdd+qfZZYatZsvpBgoKh1JJPJfa01BdtiQtGRuxyWHsTM5J5fP7E2nLPU5m8DHA8e5QzKDt6rksbpH2ijdNnbMTdrPct7FMzSOX0eHn6cct5SJBBXnlHfN+kKOMk9B0RLOouyc/ZhZm/NuqI9mT+ozPXET2RA7t+MqjxDOWL5OHSm1TNeSY2y/q892/7VqaMz9Nsfp8zOOUtV1fEHL1DbWXS1zU5A29najPU4KHPSMlJrKHPijJSayqJzSxzmkYIJBHasTt6Pn/XtLC4CAgICAgLosfyfMDrCcj6d/gtTSjnF8tjQ8XyhOovX1fjgahyz83kszc/lt+XOUSFZug6VsNiZLjD53l5P2Ba+lXpxNrRrxhiUlVtcEGCMoOJfdNUV4eJJNqKcDHSM4nvVfNr1y+sq2bVpl7uXQaGpaepbLUVMs7WnIZgAe9Q00qxPMyhp+n1rPMylzGhrQGjAAwAry++kBBoXW10t0pugrI9po3tI4tPYo8mOuSOJR5cVckcWRkaApxOHfLpejznZ2RnHVlU/wCgrzzypf8AnV5/ySuho4LdTMp6ZoZEzgPFXaVikcQvUpFKxWr6qa2mpRmpnjiH8bgF2b1r3ktete8uRUawskJwKvpD1RsJVe25hj3QW3cMe7W/64s+f/Y/0l5/rcTxG/h5QK9TU1RdKiejP6mR20MjZ4rNyzWbzNezLzWra82r2aQ38MfHKj5hDyI6ICAgIC6LH8n7tmxOH89/gtTSnjF8tjQ8Xyg9+9dV3t3LPzeSzNz+W35aB4KJCt3TDQ2w0AH1DfuW5r+Krf1o/s1dVTJxAQYIygYQZQEBAQaFyudJbKfpquUMbncObj2BR3yUxxzZHkyUxxzaURm1Beb9KYbHAYogcGTHDvPAKjOxmzTxijiGfbZzZ/TFHEfy2KTRHTOE14rHzSHiGnxK910uZ5vL3TR59ck8u7SaZs9N6FDG49b/ADvvViuvir2hZrq4a/6ugyhpGehTQt7owpYpWPZNFKx7D6GkkGH00Lh1FgXJpWfZycdJ7w51ZpezVWduijaTzj837lHbXx27wjtrYrd4R65aEA2n26ox1Ry/iq2TR/5lUyfp8f6SiNwt9XbZuirYXRHkcbndxVC9LUni0M6+O+OeLQ1V4eBAQF2BP9CyOZZHAY/zneC0tPxNjQ8Xyh1+9dVvtnKjm8lmZn8tvy0VFKJbOkZhNp+iIPox7B925betPOKG9q25w1dlTrAgICAgICAg4+ob3DZqMyyedK7dHHne4/goM+aMVefdBnzxhrz7ozarHWagqv0le3uEJ9CLgXDwCq48F809eTspYte+e31MvZN6WnhpoWwwRNjjaNzWjcFfrWKxxDTrWKxxV7YHb8V6dZQEBAQYwM55oPCspKesgdDVRNkjdxa5ebVi0cTDzelbxxaFd6m0rLbdqpotqSk4uHF0f5LLz6s0/dXsyNnUnH+6vZGe1U1IQF2O4nuiPUp9s7wWlp+JsaHi+UT1EAL9cAOHTuVHP5LM3P5bflzj2KNCn/k6r+kpJ6FzhmJ22zuPH7fvWlo35rNf4auhk5r0fwmYV9oiAgICAgINerqY6SmknmdiONuSSvNrRWJmXm1orEzKFWSkk1ReJbrcP+1idsxRkbjjl7uaz8VZ2Lzkt2hm4aTs5JyW7QnTABuDcADAWjENT7PtdBAQEBBgoGUGUHy5rXNIc0EEYIPNcmOXJiJ7qy1jYBa6gVNMP2WV24D5h6u5ZO1g+nPVHuxtvX+nbqr2lHFUUxdFj+T5jXWFxc0E/KH8R3LV0Y/tfLY0PF8oTqL19cP7hyzs3kszc/lt+XOUaFv2O4vtNziqm+i07Mg/eaeKkxZJx3i0JcOScV4st2lmjqIWTQu2o3tBaVuVnqjmH0FbRaImOz2XXRAQEBAQQ/XdTJKKS0Ux/W1LwXf053f77FR3Lc8Y492fvX56cce6SWuijt9DDSxAbMbce/mVbx06KxVdxUilIrDcXt7YdwQVtrO81cl1moo5JYoIDjDHEFxxnJ+KydrNab9MezH3M95yTWPSIeOlL7W01yhp5JZJoJjsljyTjtC5rZ7VvFfZ41di9bxE+sSs9vBa7bZQQXX13q4allBTPdGzY23uacF3ZlZ+5ltExSrM3s14tFKo7Zr7X2+sY9k8kkReA6NziQ4e9VMWe9LRPsp4di9LR/C2mHLQesLbb76Qad0oY7hQTUso82RuAeo8ivGSnXWavGSkZKTWVOzwvp5pIZRiSNxa4doWDMcTw+dms1niXmEcWR5PPUDv7h/gtXR8Xy2NDxfKC3311W+2cs7N5LMzP5bfloqJELpKU6P1H+jpBRVr/wBlefMefoz+Cuaux0ftt2XtTa+nPTbssZjg7eCCOWFq+3LYfaAgICAghLP2/wAocm1vZSs3dmAPEqhH79r8M3ybn4TZX2kIMFBHdQ6WgvEwqGyugn4FzRkOHaFVzatcs89lTPqVyzzzxL5sOkqa1TipkldUTj0SW4DfcuYdSuOeeeXMGnXFPM+spINytrjKDiai09T3trTIXRzR+jI0Z3dR61Xza9cseqtsa9c0erm2jRVPR1LKiqndUOYctbsbIyosWnFZ6pnlDh0a0t1WnlLQrq+IMHggq7XNMKe/yOaMCZgk9/A/csfcr05WJu16cqP81WjuqJ9oY/4K72zvBaWp4mxoeL5RC/euq32zlRzeSzNz+W35aCiQiAgk2mdVS2wNpq0ukpeR5s/JXNfanH+2ey7r7c4/227LHp5mVELJojmN7Q5p6wVqxMTHMNisxaOYeq66ICDCCE6d/wDOrvtcfOx8Qs/B/wDTdm4PXaum60GkICAgICAgICAgIMHggrnyjY/S1Ng7xDv+Kyt7yQx/1Dyx+EUVOO6in2h2k2V2B9M7wWlp+JsaHi+US1Fuv1eBwFQ5Uc3kszc/lt+XOUSEQEGzbqQ19fT0g+lkDT3c17x16rxV7x167xVc0bWxsaxoAa0YAHILeiOPR9FEcRw+KiqgpojLUStjYOJccJa0V9ZLWiscy1qe822px0FZC7P8S8Vy0t2lHXNjt2lute1wy1wPcV75hLyyV0QcH9H+UNxduZUjj3geIWd/htflmePb/KcZWi02UBAQEBAQEBAQEGHcEFVazqhV6gnLTlsQEY93H71jbVurLLD3L9eafs4arqqx/J+wOsTj/Pf4LU0o/tNjQ8XyhOovX9w9u4rPzeSzNz+W35c5RIRAQSjQkMLKua4VT2RxwMwHOOBkq5pxWLddl7RivVN7ezq3jXEMYdHa4uldw6V4833Dmp8u7EelE2XfiPGhlwuNZcZekrJ3SnPok4A9yz7ZLXnm0s7Jktknm0tUbjkbj1heI4h4/D3iraqH/KqZmf0vK9xe0dpeovaPdsi+XYDAuFRgfxr19bJ/09/Xy/8ATXdXVL6plVLM+WZhBa5537jwXn6luqLcvM5LTbqmeZW3Z6+O5W+CqidkPHnd/MfFbeK/XWLN/FkjJSLN9SJBAQEBAQEBAQEHK1FdmWm2ST/SnzYmnm48FDny/Tpygz5fpU6lRuc57y95y528nrKxJ/lge/LCCyPJ6QLAc/Xv8FqaU8YvlsaHi+UFvvrquzzmcs/N5LMzP5bfloqJEIHcgzk7OySdjjs5XefYYXAQEBAQEEi0hfhaKowzk/JJnecf3Hdf4q3q5/pzxPZb08/0rdNuyzY5GyNDmEFpGQRwK14mJjmG1E8xzD7R0QEBAQEBAQa9bWQ0dNJPUPayNgySSvN7RSvMvN7xSObKq1FepLzW9IdoQsyImnkOsrGz5py259mHsZ5y359nKUCuLsdxPdDkiynB+md4LS1PE2NDxfKIX7IvVaD9c5Uc3kszM/lt+WiokQgICAgICAgICByQ4STTWqZrS5tNV5lpeGBvdH+St4Nqcfpbsua+3OL0t2WJQ19PXwCakmZKw82nh39S1aXreOay16XreOa+rZBXp7ZQEBAQEGtXVjKKklqZQSyNpcdneV4veK1m0vF7xSs2lVuoL9U3mfL/ADKdp8yLl3ntWPmzzln7MTPsWy2+zkKBXEBdjuJ7odrjZSQN3TO8FpanibGh4vlE9Rev7h7dyo5vJZm5/Lb8ucokIgICAgICAgICAgIPejramhl6WknfC/mWnj3jmvVbWp/jL3S96f4Sldt15KxrW3CnDxzfHuPwV3HvT2uvY/1CYj98JBS6ws87QXVBhJ5SNIVqu3in3Wq7uGfdvsvlseMtr6YjtkAUkZsc+6aM+Kf9mJb9a4hl9wph3SApOfHH+zk7GKP9nMq9Z2mDPRSPnI5Rt/FQ23McdvVDbdxR29XzbNaW+sl6OYOpifRMnon3pj3KW7+hj3cd54n0d+ojZV0r48h7JWkbjuKs2iLQtTHVWfdTNTC6nqJKd4wY3FvwKwbV6bTD529emZq815eRAC6LI8nnqB39w/wWppRzi+WxoeL5QfURzfa8jh07ln5vLZmbHlt+XPUSIQEBAQEBAQEBAQEBAQF0MDqC4GB1ICAhw6tm1BcLScQSbcXOJ+9vu6lPiz3xz39E+HZvinv6PC81kVxuMlXDGYulw57Cc4djevOW8XtNoect4yXm0NFRIhAXYFjaAkDLCRz6d3gtTSn+02NDxfKHaogNPfqsH0Xu229uVS2a8Zbfdn7VenNP3cpV1cQEBAQEBAQEBAQEBAQEBAQEBAO85K64LjogIHNPuLF0dTdFY4i87Jkc5+O9bOnTjFHLc0q9OGGlrm1SSQMr44z+r82Td83rUO7i5jrj2Qb+HmvXHsg6zGUICAgICAgICAgICAgICAgICAgICAgLo2rZRS3CtipoWkl53n90cyvePHOS0VhJjxzkvFYWrT0wggjiawhrG7IGOS3aViI4fQVrERw35Y2SxOZI3aY4YIK7Mc+jsxzHCs9Uaamtczp6ZrpKNxyMcY+vPYsjY1rY56q9mNs6tsc9VeyOndxVVSgXHRd4dEBAQEBOAQEBOAQEBATgEBAwgICOCD2paWesnbBTROkkdwa3x7F2tZvPFXqlbXniqzNL6fbZ6bblw+rkGZHcm9gWxr4IxR921q68Ya+vd3jnkrC0/9k=;" vertex="1" parent="1">
          <mxGeometry x="1920" y="444.59000000000003" width="88" height="82.82" as="geometry" />
        </mxCell>
        <mxCell id="gZFIswUFL3Inhh1_GQlH-18" value="银行" style="shape=mxgraph.signs.travel.museum;html=1;pointerEvents=1;fillColor=#000000;strokeColor=none;verticalLabelPosition=bottom;verticalAlign=top;align=center;sketch=0;" vertex="1" parent="1">
          <mxGeometry x="1915" y="600.5" width="98" height="94" as="geometry" />
        </mxCell>
        <mxCell id="gZFIswUFL3Inhh1_GQlH-21" value="微信支付" style="text;html=1;align=center;verticalAlign=middle;resizable=0;points=[];autosize=1;strokeColor=none;fillColor=none;" vertex="1" parent="1">
          <mxGeometry x="1928" y="418" width="70" height="30" as="geometry" />
        </mxCell>
        <mxCell id="gZFIswUFL3Inhh1_GQlH-26" style="edgeStyle=orthogonalEdgeStyle;rounded=0;orthogonalLoop=1;jettySize=auto;html=1;exitX=1;exitY=0.5;exitDx=0;exitDy=0;entryX=0;entryY=0.5;entryDx=0;entryDy=0;" edge="1" parent="1" source="gZFIswUFL3Inhh1_GQlH-28" target="gZFIswUFL3Inhh1_GQlH-34">
          <mxGeometry relative="1" as="geometry" />
        </mxCell>
        <mxCell id="gZFIswUFL3Inhh1_GQlH-27" value="支付" style="edgeLabel;html=1;align=center;verticalAlign=middle;resizable=0;points=[];" vertex="1" connectable="0" parent="gZFIswUFL3Inhh1_GQlH-26">
          <mxGeometry x="0.05" y="1" relative="1" as="geometry">
            <mxPoint as="offset" />
          </mxGeometry>
        </mxCell>
        <mxCell id="gZFIswUFL3Inhh1_GQlH-28" value="买家" style="image;html=1;image=img/lib/clip_art/people/Suit_Man_128x128.png" vertex="1" parent="1">
          <mxGeometry x="1760" y="446" width="80" height="80" as="geometry" />
        </mxCell>
        <mxCell id="gZFIswUFL3Inhh1_GQlH-29" value="卖家" style="image;html=1;image=img/lib/clip_art/people/Farmer_Man_Black_128x128.png" vertex="1" parent="1">
          <mxGeometry x="2090" y="446" width="80" height="80" as="geometry" />
        </mxCell>
        <mxCell id="gZFIswUFL3Inhh1_GQlH-30" style="edgeStyle=orthogonalEdgeStyle;rounded=0;orthogonalLoop=1;jettySize=auto;html=1;exitX=0.5;exitY=1;exitDx=0;exitDy=0;" edge="1" parent="1" source="gZFIswUFL3Inhh1_GQlH-34" target="gZFIswUFL3Inhh1_GQlH-35">
          <mxGeometry relative="1" as="geometry" />
        </mxCell>
        <mxCell id="gZFIswUFL3Inhh1_GQlH-31" value="签约" style="edgeLabel;html=1;align=center;verticalAlign=middle;resizable=0;points=[];" vertex="1" connectable="0" parent="gZFIswUFL3Inhh1_GQlH-30">
          <mxGeometry x="-0.2601" y="2" relative="1" as="geometry">
            <mxPoint as="offset" />
          </mxGeometry>
        </mxCell>
        <mxCell id="gZFIswUFL3Inhh1_GQlH-32" style="edgeStyle=orthogonalEdgeStyle;rounded=0;orthogonalLoop=1;jettySize=auto;html=1;exitX=1;exitY=0.5;exitDx=0;exitDy=0;" edge="1" parent="1" source="gZFIswUFL3Inhh1_GQlH-34" target="gZFIswUFL3Inhh1_GQlH-29">
          <mxGeometry relative="1" as="geometry" />
        </mxCell>
        <mxCell id="gZFIswUFL3Inhh1_GQlH-33" value="结转" style="edgeLabel;html=1;align=center;verticalAlign=middle;resizable=0;points=[];" vertex="1" connectable="0" parent="gZFIswUFL3Inhh1_GQlH-32">
          <mxGeometry x="-0.0244" y="1" relative="1" as="geometry">
            <mxPoint as="offset" />
          </mxGeometry>
        </mxCell>
        <mxCell id="gZFIswUFL3Inhh1_GQlH-34" value="" style="shape=image;verticalLabelPosition=bottom;labelBackgroundColor=default;verticalAlign=top;aspect=fixed;imageAspect=0;image=data:image/jpeg,/9j/4AAQSkZJRgABAQAAAQABAAD/2wCEAAkGBwgHBgkIBwgKCgkLDRYPDQwMDRsUFRAWIB0iIiAdHx8kKDQsJCYxJx8fLT0tMTU3Ojo6Iys/RD84QzQ5OjcBCgoKDQwNGg8PGjclHyU3Nzc3Nzc3Nzc3Nzc3Nzc3Nzc3Nzc3Nzc3Nzc3Nzc3Nzc3Nzc3Nzc3Nzc3Nzc3Nzc3N//AABEIAMAAzAMBEQACEQEDEQH/xAAbAAEAAgMBAQAAAAAAAAAAAAAABgcBBAUDAv/EAEUQAAEDAwEEBQcICAUFAAAAAAEAAgMEBREGEiExQRNRYXHBByIyNXOBkRRCQ1OhsdHhFSMkUmJjcnQlM5Pw8RY0NkSS/8QAGgEBAAMBAQEAAAAAAAAAAAAAAAMEBQECBv/EACwRAQACAgEDAwMDBQEBAAAAAAABAgMEERIxMyFBgRNhcQUiURQjMkJSFTT/2gAMAwEAAhEDEQA/ALuc4NaXOcABxJQ7d1fap1XJUyuo7a8sgGQ6Tm7rx1LL2dqZnoqydrcm09FERVJn9xcBAQEBAQEBAQMoCAgIA3ICAgICAhwc880G3bbjU2ycTUkmwRxbyd3hSY8tsc81SY8tsU81Wfp6+Q3qkEjPMnbukjJ4Hs7Fr4c0Za8w29fPXNXn3dfPap0/CG62vMtPRto4X4fN6RHEN/NUtzN0V6Y91Dez9FemPdAOWFlMcR0QEBAQEBAQEBAQEBAQEBAQEBAQEBdG/ZblLa7hHUxOOM4kHW3mpMOScd+U2HLOO8StSKqdLE2Rsg2XDI3DetysxMct+tomOVZ6rqPlF9qR82I7Dfd/ysbatzllh7durNP2chV1YQEBAQEBAQF0FwEBAQEBAQEBAQEBAQEDvT7HHPosjSFSKixQmT0oyWH3cPsW1p26sUS3NO/VihB9QjZvte0cp3LKzeSzJz+W35c9RIRAQEBB6QwzVDwyCJ8jupgyV6rWbekPVa2tPEQ7lHo+81QBMDIGnnK/wCsU1Mtlimlls6kPk/l3dPcGjsZF+JU0aE+9k8fp0+9myPJ/T86+f/4C9f0Ef9JP/Or/ANS85PJ+36G4PH9UYK5Oj/Fnmf07+LOdVaGucW+nkhnHeWH7VHbSyR2Q20MsdvVw621V9AT8spJIwPnY3fFVrYslO8K9sOSneGmo0XIuguAgICAgICAgIC6LF0DEH2In+e7wWroeL5bGh4vlC9Rev7j/AHDlnZvJZm5/Lb8ucokIgLo+oY3zSsjiY573HAawZJTiZniHYiZniqa2XQ+0GzXVxB+pYfvKv4tLn1u0cOh75EwoqCmooujpYGRNH7o3/FX60rSP2w0aY6U/xhtDgvb2ygICAg+HsDhsuaHA8QRlcmOXJjlHrto+3120+FnyaY/Oj4e8Ktl1KX9Y9FXLp47+sRxKBXix1tnkIqo8x5wJW+ifwWZlwWxz69mVlwXxT+5zlEhEBAQEBAQEBAXRZHk99QO9u/wWpozxi+WxoeL5Qa/Em91xPEzOWfm8lmZn8tvy0FEiEGzb6Kevq2U1Kzbkf8AOs9i90pN7dMPdMc5LdMLP09YKezwDAElS4efKRv7h2LYw4K4o+7bwa9cUfd2RuU6wygICAgICAgwUHlPTx1ETopo2vY4YLXbwV5msWjiXJrFo4tCudVaYda81VEHPpCfOHEx/ksvY1px/ur2Y+zqfT/dTsjKqKYuOCAgICAgIC7HcT7Qr3NshA+ud4LS1PE2NDxfKIX311W+2cqObyWZmfy2/LQUSJlrXOdssGXZxjtXeJnsd54haWlLHHaaIOkGaqUAyO5jsWxrYIxV+7c1cEYq/d3gMBWVoJwg512vdBaQPlk2y48GAZcfcosmamPvKHLnpi/ylz6LWFqq6hsAfJE5xw0yNwCe9R028d54RU3cV54SEHIVlbZQEGtWVsFFA6aqkEcbeJK82vFI5s8XvWkc2cIa3tHS7GZsA+nsblW/rcXPCr/XYueEhpqiKqhbLA8PjeMtcOatVmLRzC5W0WjmHquuvOWNsjC14DmkYIPNJiJ9JJjn0lVurLIbPXZiyaaYkx/wnm1Y2zh+lb07MPawfRt6dpcNV1UXAQEBAQEBdjuJ7offZTu+md4LS1PE2NDxfKJaiH+PXDH17lRzeSzNz+W35c/vUSFJdCWwVt1dUStzFTAOGebzwVzTx9V+Z9l3Sxdd+qfZZYatZsvpBgoKh1JJPJfa01BdtiQtGRuxyWHsTM5J5fP7E2nLPU5m8DHA8e5QzKDt6rksbpH2ijdNnbMTdrPct7FMzSOX0eHn6cct5SJBBXnlHfN+kKOMk9B0RLOouyc/ZhZm/NuqI9mT+ozPXET2RA7t+MqjxDOWL5OHSm1TNeSY2y/q892/7VqaMz9Nsfp8zOOUtV1fEHL1DbWXS1zU5A29najPU4KHPSMlJrKHPijJSayqJzSxzmkYIJBHasTt6Pn/XtLC4CAgICAgLosfyfMDrCcj6d/gtTSjnF8tjQ8XyhOovX1fjgahyz83kszc/lt+XOUSFZug6VsNiZLjD53l5P2Ba+lXpxNrRrxhiUlVtcEGCMoOJfdNUV4eJJNqKcDHSM4nvVfNr1y+sq2bVpl7uXQaGpaepbLUVMs7WnIZgAe9Q00qxPMyhp+n1rPMylzGhrQGjAAwAry++kBBoXW10t0pugrI9po3tI4tPYo8mOuSOJR5cVckcWRkaApxOHfLpejznZ2RnHVlU/wCgrzzypf8AnV5/ySuho4LdTMp6ZoZEzgPFXaVikcQvUpFKxWr6qa2mpRmpnjiH8bgF2b1r3ktete8uRUawskJwKvpD1RsJVe25hj3QW3cMe7W/64s+f/Y/0l5/rcTxG/h5QK9TU1RdKiejP6mR20MjZ4rNyzWbzNezLzWra82r2aQ38MfHKj5hDyI6ICAgIC6LH8n7tmxOH89/gtTSnjF8tjQ8Xyg9+9dV3t3LPzeSzNz+W35aB4KJCt3TDQ2w0AH1DfuW5r+Krf1o/s1dVTJxAQYIygYQZQEBAQaFyudJbKfpquUMbncObj2BR3yUxxzZHkyUxxzaURm1Beb9KYbHAYogcGTHDvPAKjOxmzTxijiGfbZzZ/TFHEfy2KTRHTOE14rHzSHiGnxK910uZ5vL3TR59ck8u7SaZs9N6FDG49b/ADvvViuvir2hZrq4a/6ugyhpGehTQt7owpYpWPZNFKx7D6GkkGH00Lh1FgXJpWfZycdJ7w51ZpezVWduijaTzj837lHbXx27wjtrYrd4R65aEA2n26ox1Ry/iq2TR/5lUyfp8f6SiNwt9XbZuirYXRHkcbndxVC9LUni0M6+O+OeLQ1V4eBAQF2BP9CyOZZHAY/zneC0tPxNjQ8Xyh1+9dVvtnKjm8lmZn8tvy0VFKJbOkZhNp+iIPox7B925betPOKG9q25w1dlTrAgICAgICAg4+ob3DZqMyyedK7dHHne4/goM+aMVefdBnzxhrz7ozarHWagqv0le3uEJ9CLgXDwCq48F809eTspYte+e31MvZN6WnhpoWwwRNjjaNzWjcFfrWKxxDTrWKxxV7YHb8V6dZQEBAQYwM55oPCspKesgdDVRNkjdxa5ebVi0cTDzelbxxaFd6m0rLbdqpotqSk4uHF0f5LLz6s0/dXsyNnUnH+6vZGe1U1IQF2O4nuiPUp9s7wWlp+JsaHi+UT1EAL9cAOHTuVHP5LM3P5bflzj2KNCn/k6r+kpJ6FzhmJ22zuPH7fvWlo35rNf4auhk5r0fwmYV9oiAgICAgINerqY6SmknmdiONuSSvNrRWJmXm1orEzKFWSkk1ReJbrcP+1idsxRkbjjl7uaz8VZ2Lzkt2hm4aTs5JyW7QnTABuDcADAWjENT7PtdBAQEBBgoGUGUHy5rXNIc0EEYIPNcmOXJiJ7qy1jYBa6gVNMP2WV24D5h6u5ZO1g+nPVHuxtvX+nbqr2lHFUUxdFj+T5jXWFxc0E/KH8R3LV0Y/tfLY0PF8oTqL19cP7hyzs3kszc/lt+XOUaFv2O4vtNziqm+i07Mg/eaeKkxZJx3i0JcOScV4st2lmjqIWTQu2o3tBaVuVnqjmH0FbRaImOz2XXRAQEBAQQ/XdTJKKS0Ux/W1LwXf053f77FR3Lc8Y492fvX56cce6SWuijt9DDSxAbMbce/mVbx06KxVdxUilIrDcXt7YdwQVtrO81cl1moo5JYoIDjDHEFxxnJ+KydrNab9MezH3M95yTWPSIeOlL7W01yhp5JZJoJjsljyTjtC5rZ7VvFfZ41di9bxE+sSs9vBa7bZQQXX13q4allBTPdGzY23uacF3ZlZ+5ltExSrM3s14tFKo7Zr7X2+sY9k8kkReA6NziQ4e9VMWe9LRPsp4di9LR/C2mHLQesLbb76Qad0oY7hQTUso82RuAeo8ivGSnXWavGSkZKTWVOzwvp5pIZRiSNxa4doWDMcTw+dms1niXmEcWR5PPUDv7h/gtXR8Xy2NDxfKC3311W+2cs7N5LMzP5bfloqJELpKU6P1H+jpBRVr/wBlefMefoz+Cuaux0ftt2XtTa+nPTbssZjg7eCCOWFq+3LYfaAgICAghLP2/wAocm1vZSs3dmAPEqhH79r8M3ybn4TZX2kIMFBHdQ6WgvEwqGyugn4FzRkOHaFVzatcs89lTPqVyzzzxL5sOkqa1TipkldUTj0SW4DfcuYdSuOeeeXMGnXFPM+spINytrjKDiai09T3trTIXRzR+jI0Z3dR61Xza9cseqtsa9c0erm2jRVPR1LKiqndUOYctbsbIyosWnFZ6pnlDh0a0t1WnlLQrq+IMHggq7XNMKe/yOaMCZgk9/A/csfcr05WJu16cqP81WjuqJ9oY/4K72zvBaWp4mxoeL5RC/euq32zlRzeSzNz+W35aCiQiAgk2mdVS2wNpq0ukpeR5s/JXNfanH+2ey7r7c4/227LHp5mVELJojmN7Q5p6wVqxMTHMNisxaOYeq66ICDCCE6d/wDOrvtcfOx8Qs/B/wDTdm4PXaum60GkICAgICAgICAgIMHggrnyjY/S1Ng7xDv+Kyt7yQx/1Dyx+EUVOO6in2h2k2V2B9M7wWlp+JsaHi+US1Fuv1eBwFQ5Uc3kszc/lt+XOUSEQEGzbqQ19fT0g+lkDT3c17x16rxV7x167xVc0bWxsaxoAa0YAHILeiOPR9FEcRw+KiqgpojLUStjYOJccJa0V9ZLWiscy1qe822px0FZC7P8S8Vy0t2lHXNjt2lute1wy1wPcV75hLyyV0QcH9H+UNxduZUjj3geIWd/htflmePb/KcZWi02UBAQEBAQEBAQEGHcEFVazqhV6gnLTlsQEY93H71jbVurLLD3L9eafs4arqqx/J+wOsTj/Pf4LU0o/tNjQ8XyhOovX9w9u4rPzeSzNz+W35c5RIRAQSjQkMLKua4VT2RxwMwHOOBkq5pxWLddl7RivVN7ezq3jXEMYdHa4uldw6V4833Dmp8u7EelE2XfiPGhlwuNZcZekrJ3SnPok4A9yz7ZLXnm0s7Jktknm0tUbjkbj1heI4h4/D3iraqH/KqZmf0vK9xe0dpeovaPdsi+XYDAuFRgfxr19bJ/09/Xy/8ATXdXVL6plVLM+WZhBa5537jwXn6luqLcvM5LTbqmeZW3Z6+O5W+CqidkPHnd/MfFbeK/XWLN/FkjJSLN9SJBAQEBAQEBAQEHK1FdmWm2ST/SnzYmnm48FDny/Tpygz5fpU6lRuc57y95y528nrKxJ/lge/LCCyPJ6QLAc/Xv8FqaU8YvlsaHi+UFvvrquzzmcs/N5LMzP5bfloqJEIHcgzk7OySdjjs5XefYYXAQEBAQEEi0hfhaKowzk/JJnecf3Hdf4q3q5/pzxPZb08/0rdNuyzY5GyNDmEFpGQRwK14mJjmG1E8xzD7R0QEBAQEBAQa9bWQ0dNJPUPayNgySSvN7RSvMvN7xSObKq1FepLzW9IdoQsyImnkOsrGz5py259mHsZ5y359nKUCuLsdxPdDkiynB+md4LS1PE2NDxfKIX7IvVaD9c5Uc3kszM/lt+WiokQgICAgICAgICByQ4STTWqZrS5tNV5lpeGBvdH+St4Nqcfpbsua+3OL0t2WJQ19PXwCakmZKw82nh39S1aXreOay16XreOa+rZBXp7ZQEBAQEGtXVjKKklqZQSyNpcdneV4veK1m0vF7xSs2lVuoL9U3mfL/ADKdp8yLl3ntWPmzzln7MTPsWy2+zkKBXEBdjuJ7odrjZSQN3TO8FpanibGh4vlE9Rev7h7dyo5vJZm5/Lb8ucokIgICAgICAgICAgIPejramhl6WknfC/mWnj3jmvVbWp/jL3S96f4Sldt15KxrW3CnDxzfHuPwV3HvT2uvY/1CYj98JBS6ws87QXVBhJ5SNIVqu3in3Wq7uGfdvsvlseMtr6YjtkAUkZsc+6aM+Kf9mJb9a4hl9wph3SApOfHH+zk7GKP9nMq9Z2mDPRSPnI5Rt/FQ23McdvVDbdxR29XzbNaW+sl6OYOpifRMnon3pj3KW7+hj3cd54n0d+ojZV0r48h7JWkbjuKs2iLQtTHVWfdTNTC6nqJKd4wY3FvwKwbV6bTD529emZq815eRAC6LI8nnqB39w/wWppRzi+WxoeL5QfURzfa8jh07ln5vLZmbHlt+XPUSIQEBAQEBAQEBAQEBAQF0MDqC4GB1ICAhw6tm1BcLScQSbcXOJ+9vu6lPiz3xz39E+HZvinv6PC81kVxuMlXDGYulw57Cc4djevOW8XtNoect4yXm0NFRIhAXYFjaAkDLCRz6d3gtTSn+02NDxfKHaogNPfqsH0Xu229uVS2a8Zbfdn7VenNP3cpV1cQEBAQEBAQEBAQEBAQEBAQEBAO85K64LjogIHNPuLF0dTdFY4i87Jkc5+O9bOnTjFHLc0q9OGGlrm1SSQMr44z+r82Td83rUO7i5jrj2Qb+HmvXHsg6zGUICAgICAgICAgICAgICAgICAgICAgLo2rZRS3CtipoWkl53n90cyvePHOS0VhJjxzkvFYWrT0wggjiawhrG7IGOS3aViI4fQVrERw35Y2SxOZI3aY4YIK7Mc+jsxzHCs9Uaamtczp6ZrpKNxyMcY+vPYsjY1rY56q9mNs6tsc9VeyOndxVVSgXHRd4dEBAQEBOAQEBOAQEBATgEBAwgICOCD2paWesnbBTROkkdwa3x7F2tZvPFXqlbXniqzNL6fbZ6bblw+rkGZHcm9gWxr4IxR921q68Ya+vd3jnkrC0/9k=;" vertex="1" parent="1">
          <mxGeometry x="1920" y="444.59000000000003" width="88" height="82.82" as="geometry" />
        </mxCell>
        <mxCell id="gZFIswUFL3Inhh1_GQlH-35" value="银行" style="shape=mxgraph.signs.travel.museum;html=1;pointerEvents=1;fillColor=#000000;strokeColor=none;verticalLabelPosition=bottom;verticalAlign=top;align=center;sketch=0;" vertex="1" parent="1">
          <mxGeometry x="1915" y="600.5" width="98" height="94" as="geometry" />
        </mxCell>
        <mxCell id="gZFIswUFL3Inhh1_GQlH-36" value="微信支付" style="text;html=1;align=center;verticalAlign=middle;resizable=0;points=[];autosize=1;strokeColor=none;fillColor=none;" vertex="1" parent="1">
          <mxGeometry x="1928" y="418" width="70" height="30" as="geometry" />
        </mxCell>
        <mxCell id="gZFIswUFL3Inhh1_GQlH-37" value="用户" style="image;html=1;image=img/lib/clip_art/people/Suit_Man_128x128.png" vertex="1" parent="1">
          <mxGeometry x="1750" y="918" width="80" height="80" as="geometry" />
        </mxCell>
        <mxCell id="gZFIswUFL3Inhh1_GQlH-38" value="" style="shape=image;verticalLabelPosition=bottom;labelBackgroundColor=default;verticalAlign=top;aspect=fixed;imageAspect=0;image=data:image/png,iVBORw0KGgoAAAANSUhEUgAAAOEAAADhCAMAAAAJbSJIAAAApVBMVEX///8jGdwAANrDwvT8/P/h4PogFdyqqO4VBduRjut8eOcgFtwcENsWANwYCtv19P3X1fiyr/H5+f4uJN7m5fvs6/zS0Pfw7/1pZOXd3Pm2tPK6uPLx8P1YUuNmYeVIQeGWk+yLh+qDf+nLyfZTTeJwbOaem+1NR+Gmo+80LN7HxfWbmO03L99uaeYqIN13cudcV+NBOuBbVeRiXORDPOFJQ+B6dujWId/ZAAAQC0lEQVR4nNVda1fqOhC1AWqhSUAeHhSRhwiiyEP0/P+fdluQI6SZZKakwbs/3HXXOhK6aTLvmVxdOUbnfjyZB8vFR7VXd732L0C5t2Ys4kEQxFww9vx06QdyjdKAyeAHccTWjUs/k0s03xkPFEg2uvRjuUNjKVR+Kdjgz6WfzBFK2Rf4/Rrnd9S12o37m17jl/0yPRbqCQYBX1YoK3Wms5ClaK175aIel44nmGBCkXfQC3VqTPB497FQsmj4WzROhxsIJht1g3wZ5SE7OcwxkzfFPjkWAwmR20OsUMs0PlmsfDJkW/wGKA4jZiaYSNQeYpkboRNWUXR5u+HWSjAI4wfrMqPMCzy8xhcPJEwofwF64hj2fbqCfydW9cEDxr39FaZPadGK76ZVLkyxZZSjB8itcREjwYTi1BMZHa5RrzB5SJMR/te2CCt5I5TBAnEKU0R/4TVerL9SKEmGkUs8IV9h4jGCiq0ESNFjyC+frI7RtSj7H4BnyWIRHT5+IT/sz9L+83+DT4A1JrgfySaNC0IPu0nTR2xrl3hDLiHXnrntsYoIDLW2SQVxCL8/fwl52pyjlOEe/EO3RB99kPklhE2FsEmTl6BZAWcRfX/+Ai8Rq+6/nzCr9MtzpDpNwWf+GY610SeQ4X1mgSntJ/Kv9geEN5A4GOPMAmgxs1/Av04kvQGNRqTt8iBc+Cb4h8hwoy6ANWoPEL61foPGMG4pMdBX2ucv4EWViAxVB4FiL+wgu54ZUpRZCkVdPIQkOZOAfzb9Mrw5jyFxCwRGF6wYEEWhynBE0qb7FTxrxCnxEdntycc3REmaXaFw2KMPpucrkzepf9P0vHN4l4chJnj+axiStWHg/x1SPPwUpyYJ9dM7hp7PITrQtkccn8h6qiTeMdRHQgoDzQEOwvmJvqbKqXSFpT3D4xREacgHJ59+o6tD3vdL8OoqIIRpMlZlDoVvCpwXA3w8OIU49QzymDTZKEHBoG00RdRXyQzjyHsYg2Y7s1OzeUhmyL37+FcPguD/hMvTD9Nl6QXiNFcfBONZfT6qRWTJQRYEyk5TLS6yTRMG/glSrOeYK/45McqTbIK3CzAkREyjmvLROjkOVYSD36wnMMVG8E4wy1T+xLQwTfTsnN1t9XEjGROtj3EP+vnQIVM+yBS30ewF535Fp7pgQu7qBEMuWPgIeGbYiCC7znyUphAdZ0ibVSZObM5YsoWWI1LWhEG2kJLmfLl9hbdzTcqEsw+d0bRCvQldAriOKzbaQz66JHgNlDRLzVa7qmDsGr0qe6bkyF36vkMw5xUzjftSRWw2fQSJYNY6LW0bGovovjLnqWyPewq9oC+jywAU5/k8WMzFaJGhaC0wDQNA2WBTwLFLi/TOlpaNBhmKtpIYMAZYRuaAXWbVmvakpcgWN5mLJxlsT+LibcJlUs1es5088XvmY2uDymDZ9P0PMOU00ZfDxgucvZ9VbuU++EEjwat2aBU2cuPS4v5AmYq6g9/VH6mYDc3f+Go7irLlkiDWjuKaHpGpzkyIImsq5d5MUWyc9s30sd6e7s00vlSOkr0jfv+ets9ij5i9O81r473uWGtE3W9Y9O+FxIL1cc0gjQX0vdx1rwWhNiLKytMUT6u07UyI5D9yhNbSzfHRL3PMbwbUz/x5uh/WVu+r8bRHMgU6lNoIsGS3UrqZTu9faYZyeyUZP/n2OGIDraFQfhqn7XsiimS0+yk/p+g6IlK6SzqOKXSmfbFzueMg5lKw4PlV92f1l4XiuQaJfz65x53WNaVyIBbOU3mdXvV9w4Xgm+7wSZ9Gu59rHTvONpj0d4cW+zLYYkWhuYV6cROOfbvYJuZkNaGlgtGem8IJ0l7F8EgLfXmv3qkszQ9oNZ+IxaJQ7X1hqLesb8DSdYJolDxFJohdLCYIZW2OdZCTXU4jC1bgGk+YqTP6nXgME7XlUdRUJMoaiYXBxqHX0TGPDJ+R8XFDmrgTUMtZfZbv4LN4sLRp5KiM8FeCRYgdg0osRx2dvzI6SqoRrAXPUaHkrxSSlPKHtlaNWjfvs35nQpGC0EskKwuL8nGJNk5V/HsuvQSkWqU+GRKL+sXwf8ewRpMRcaRdhZhU98qQdAwDSNY852DoSZY+UI0R/TalNUvuGWojKe5BLurX+wTU7pCAWmZW7zRKvfvea+OBGsSmtlepBeXfoDchEWqU2vfjScAOaG1Hr5RZZXRjRHsQ89ilON+iPZ1F/yZ4pQilYEuoPkcD+gHSysA6fv7D4UFR9axP/RN2PyyZfENuV7qYF1pff0b1DzHtjqUBGP8LYiaqqEAu+cmAAAu57Fr/Qx3jdgLz23OcY0xbyuCGPaR2LBW9KdeiDps1Zt1enD1at2pZs8ltDPUpB8flnk8CtSkiq1bN0cUn9ZkxonfBzfUDQ9MoxWNYA7l5GOpFBNWCN1UgNLuUiR76X9w9w+aSdKKzNb8/qG9orSZ9k0xtOmNIk6Ymbdi2B+BPIbLVcucxBEo1Sa404Gam6CzoKnoCv0WH7/DqL6V7AuwErNMJakvJzmEInew2fpiKgNMyM7qFm4CBsyPzSBowBY+patshFqAyHOdofk0BKo0cDOG0GFqcwinuPP3L32sC3kaZ0j62h8GgROpE/glp+z+SbEQeEEL7gqbFUpiSt6h9Ggswwf1IDyz/g/zUr5kjK2awBMuoVCvoEeSIFByvq99cpCqY/UKm+Ep9aV0PrkluUjoosoj1YcAxdV/E0pj361hLHuCi6xwBuxPoqjpztNOGcxPBhOKnsWxFwE4rccaCBkLXjk6OtennFx6h/gguGbMBXCZXpwzQA6Bzq8nxUnv04WrKtFs/FOzF4BRic+0mhJo5SX+IjYqo1G3nXa0ATLvXlsbIEb1zWQepGY64plZrocKcd7XWTxgwjXDG3Z4xMnZHNz30j5ctNSCKGusxPKD+Ourvr5pgi/fhkyVK3fzM4VHoKWaOIrFci5QTKzc77fYD5qW/OziEe8TZagrS9MFYFDLiBdOihwWfqx4/dtbwDsYAUm7k9yi0z6i66JRqk7iQ8ZG3jqTMAZlOIsKkF+R1ITRU5PmqXqGouD919KyfuIi5BA92Y51OMe8QjSLqeuvO9MQRQq44QDUcReG05XuP5kzv3MgoiuQOPAHZq+JLZbdNMEdRZnt4zyc40H+zfB7/XT0/d7vbbb8/mWxyUFRMqA/7W4wW7m/6akKxQ6VrKIdjFalR4pot2cMG7nV9Hdw7Z09j1ajFnjBpJc5q7ifU1r/Aw+GAYcDUwG59zKBmRc7mBVwM1VnAERQXDDWB8D9vGybU/Ep6Y+asiBK0O1OKyQlDnStVbgy3wa7JcSeo0wY9MakWMiPrNjYpejcMgVh/vV16GY5Wj9vH1ejt+ragcZHgnY5OGcLpjMJxbclTuWJ4iS7AHaz+oDOGF7qwy16I4I7hJSjWAUutIIb+b5arGNRgIQx9U2yEGG/JKUO/N3ZVzFqiGIaBbkBVQTDc/Fskw4D5utoCui20cIYBe/TR7vgww/cBumZorCpyhZLAR2TcMwwip7N4dKhiCyoLYhjIZaF3BZkKKmMpmIoCGAacF3j9cQcsqEzcT7l9uVFwfRoTyjKMU1AphsV1IoFqXrJNFbF3Dgz371oIEXEex0vtkupuOPldiprk8Aqoec7Wrygh/s1QVO8ajbsElUo7wcNK87uxXuMUp19djHkDqPmYDbDn4puhOh5U15ubaQFVJiwVoRiBgWPacaYAKAyVBGlZnSElNq7jvgBBMSCMbzmHYSZIKgO3gSfgQmL2TDExnDIMeOQydnirlp18Pwctl+yWYSIB3HmMbX32kyrRHDNM5Y0jKxWYZ0p215wzTOSNmylOXa0lIydUge2eYcCli8kj+sFDhjp2CGcx1BJMzcXzKTYAMao1DpunlkjxDBOReq6vUdbf7aCdcF8ZtU6tydN9XAjDgLfOTGoDpUi6oZBVoczhFz4YBhG2SE8PYMygpl2mvVG3syeGZ2Y19D3UmlaEBs/8pS+GZ80yB2oes51vnSh7XH0xTBRXfoZbvc+b7dYYaP7QJUNzACT/hBXgFcZS/UPtTQP+GMa5x8YBA8Qy92Z1tM3k/hjmFjbQFTkZba9XKR4Zhq18Njg0KDIjuz61VoFHhnlPIlRazRQrog0cV48MeS5xCl4xqjw51LLjkyE8edsEaKhw2FIYAs1cXhnmupANGm7GN8offul3s1eGeWbFNqF60MxiwBwurwwNrfMgKqDXqTIEHHDPDOnZDLDglau9ur+CIaIdTwV4TVE4VyTNr2DINQ1vFoAdHJnxyMCII78M45DMEJ5myhQTCZhG6JdhQG/mgucNqdoV6Kv0zJCu8+ERaarY+gVWW/oZclwR8H6DzOXa0DQ13wzJ+X34HWYucNcbpr4Zksdw6rLPh8XUv53p/hbJ8K8rhuTB24bJ0Jktrw2MIxnqtJIfhoahWNnrv3XiFMlQFwzycw4NN7KEi0zk5yVbyIBkqKsE9CNLTf3hmh3x2lKNNyzDq6kQPDyByhAzCYuuD9uGaYy6YWgPI8FOenXQDK/a1dmydQw1po5gGAtyhsZ4e6o2kN653gp77inSZf/L9VMo/4xhyKkEzXNfQZe6fIzTf/pmaJscowOCYQ7fwnz5U45OnUNdW45ECoJhVr7bYb4okG5C/Kvco18whGCYK2JqvEcvjKmy68DQMCYMAmKgQq7Ltcwjn3hMXPNffalU7Vor7AzzCBrrWGGu9stb8FNBSz7Edob5biq0zSfmghTfOqoRph4aO8OciQvbsI2YUYTGcRU0scwXwTBfDb/92lXRwluDJ3XetLZyK0P01CQV9tuPOXvHytTTSnaxIPgCVoa5S78x40Qi8Y57j0qtPmdb9Pt/sDxHHOUu4UPNnJRsPkV8Q0Y0S7a5wYUAbRpfbvMSxM6ECQVbjG9eSyY8aQaSccY+qgjYRN45V4ehB4fyKNMyo0D/lFxgYP7uWOQnSL/W8hI4rw/63GmdHhCGZ5UnuphmWTDObWU/fyJpweCLcwvaSdPuLgAHd06tfjVFkm0MoLz9xdJGgnPFKWgiZmxdCDx0dNcr5b4Rn+DSWYPXiNLi7A08dNjB1oscDA6MwzAdvhfSu3+1EC2nd7t3+rhpGBpe/NDnHQXzxWYzb/HvXmBJHzV4tCxbu54O1duQOcapQR58bsfXpdv2sW1V7tw99d6eZ3OR8MxFM8ok2x2gfPOpn/KtJ5e8KDmpXTdM0q5eKVW7S2a/2ksBZ12nO/SH49Mq2WvGUHH8vSnFbPzSQE1YvqrfvWxZZnq44SskmxV4eWazV5vLXUN99D22M0Xyv5HYEZPB5rF680qNfTVL43TH2i9YizkT3QLnKuzRuU3HwdWeu9v1ut+f9Nfr7eNzbfR283p7d8Zojkqvlt5zCR/MdOfLj5eip38Ui07jerydHyTt4Y3GIY/Ebuf3/t/0DijXG73r4d/116K1I9hazLqjl95dPjfpP+egJTWJ6787AAAAAElFTkSuQmCC;" vertex="1" parent="1">
          <mxGeometry x="1928" y="831.5" width="60" height="60" as="geometry" />
        </mxCell>
        <mxCell id="gZFIswUFL3Inhh1_GQlH-39" value="" style="shape=image;verticalLabelPosition=bottom;labelBackgroundColor=default;verticalAlign=top;aspect=fixed;imageAspect=0;image=data:image/jpeg,/9j/4AAQSkZJRgABAQAAAQABAAD/2wCEAAkGBwgHBgkIBwgKCgkLDRYPDQwMDRsUFRAWIB0iIiAdHx8kKDQsJCYxJx8fLT0tMTU3Ojo6Iys/RD84QzQ5OjcBCgoKDQwNGg8PGjclHyU3Nzc3Nzc3Nzc3Nzc3Nzc3Nzc3Nzc3Nzc3Nzc3Nzc3Nzc3Nzc3Nzc3Nzc3Nzc3Nzc3N//AABEIAMAAzAMBEQACEQEDEQH/xAAbAAEAAgMBAQAAAAAAAAAAAAAABgcBBAUDAv/EAEUQAAEDAwEEBQcICAUFAAAAAAEAAgMEBREGEiExQRNRYXHBByIyNXOBkRRCQ1OhsdHhFSMkUmJjcnQlM5Pw8RY0NkSS/8QAGgEBAAMBAQEAAAAAAAAAAAAAAAMEBQECBv/EACwRAQACAgEDAwMDBQEBAAAAAAABAgMEERIxMyFBgRNhcQUiURQjMkJSFTT/2gAMAwEAAhEDEQA/ALuc4NaXOcABxJQ7d1fap1XJUyuo7a8sgGQ6Tm7rx1LL2dqZnoqydrcm09FERVJn9xcBAQEBAQEBAQMoCAgIA3ICAgICAhwc880G3bbjU2ycTUkmwRxbyd3hSY8tsc81SY8tsU81Wfp6+Q3qkEjPMnbukjJ4Hs7Fr4c0Za8w29fPXNXn3dfPap0/CG62vMtPRto4X4fN6RHEN/NUtzN0V6Y91Dez9FemPdAOWFlMcR0QEBAQEBAQEBAQEBAQEBAQEBAQEBdG/ZblLa7hHUxOOM4kHW3mpMOScd+U2HLOO8StSKqdLE2Rsg2XDI3DetysxMct+tomOVZ6rqPlF9qR82I7Dfd/ysbatzllh7durNP2chV1YQEBAQEBAQF0FwEBAQEBAQEBAQEBAQEDvT7HHPosjSFSKixQmT0oyWH3cPsW1p26sUS3NO/VihB9QjZvte0cp3LKzeSzJz+W35c9RIRAQEBB6QwzVDwyCJ8jupgyV6rWbekPVa2tPEQ7lHo+81QBMDIGnnK/wCsU1Mtlimlls6kPk/l3dPcGjsZF+JU0aE+9k8fp0+9myPJ/T86+f/4C9f0Ef9JP/Or/ANS85PJ+36G4PH9UYK5Oj/Fnmf07+LOdVaGucW+nkhnHeWH7VHbSyR2Q20MsdvVw621V9AT8spJIwPnY3fFVrYslO8K9sOSneGmo0XIuguAgICAgICAgIC6LF0DEH2In+e7wWroeL5bGh4vlC9Rev7j/AHDlnZvJZm5/Lb8ucokIgLo+oY3zSsjiY573HAawZJTiZniHYiZniqa2XQ+0GzXVxB+pYfvKv4tLn1u0cOh75EwoqCmooujpYGRNH7o3/FX60rSP2w0aY6U/xhtDgvb2ygICAg+HsDhsuaHA8QRlcmOXJjlHrto+3120+FnyaY/Oj4e8Ktl1KX9Y9FXLp47+sRxKBXix1tnkIqo8x5wJW+ifwWZlwWxz69mVlwXxT+5zlEhEBAQEBAQEBAXRZHk99QO9u/wWpozxi+WxoeL5Qa/Em91xPEzOWfm8lmZn8tvy0FEiEGzb6Kevq2U1Kzbkf8AOs9i90pN7dMPdMc5LdMLP09YKezwDAElS4efKRv7h2LYw4K4o+7bwa9cUfd2RuU6wygICAgICAgwUHlPTx1ETopo2vY4YLXbwV5msWjiXJrFo4tCudVaYda81VEHPpCfOHEx/ksvY1px/ur2Y+zqfT/dTsjKqKYuOCAgICAgIC7HcT7Qr3NshA+ud4LS1PE2NDxfKIX311W+2cqObyWZmfy2/LQUSJlrXOdssGXZxjtXeJnsd54haWlLHHaaIOkGaqUAyO5jsWxrYIxV+7c1cEYq/d3gMBWVoJwg512vdBaQPlk2y48GAZcfcosmamPvKHLnpi/ylz6LWFqq6hsAfJE5xw0yNwCe9R028d54RU3cV54SEHIVlbZQEGtWVsFFA6aqkEcbeJK82vFI5s8XvWkc2cIa3tHS7GZsA+nsblW/rcXPCr/XYueEhpqiKqhbLA8PjeMtcOatVmLRzC5W0WjmHquuvOWNsjC14DmkYIPNJiJ9JJjn0lVurLIbPXZiyaaYkx/wnm1Y2zh+lb07MPawfRt6dpcNV1UXAQEBAQEBdjuJ7offZTu+md4LS1PE2NDxfKJaiH+PXDH17lRzeSzNz+W35c/vUSFJdCWwVt1dUStzFTAOGebzwVzTx9V+Z9l3Sxdd+qfZZYatZsvpBgoKh1JJPJfa01BdtiQtGRuxyWHsTM5J5fP7E2nLPU5m8DHA8e5QzKDt6rksbpH2ijdNnbMTdrPct7FMzSOX0eHn6cct5SJBBXnlHfN+kKOMk9B0RLOouyc/ZhZm/NuqI9mT+ozPXET2RA7t+MqjxDOWL5OHSm1TNeSY2y/q892/7VqaMz9Nsfp8zOOUtV1fEHL1DbWXS1zU5A29najPU4KHPSMlJrKHPijJSayqJzSxzmkYIJBHasTt6Pn/XtLC4CAgICAgLosfyfMDrCcj6d/gtTSjnF8tjQ8XyhOovX1fjgahyz83kszc/lt+XOUSFZug6VsNiZLjD53l5P2Ba+lXpxNrRrxhiUlVtcEGCMoOJfdNUV4eJJNqKcDHSM4nvVfNr1y+sq2bVpl7uXQaGpaepbLUVMs7WnIZgAe9Q00qxPMyhp+n1rPMylzGhrQGjAAwAry++kBBoXW10t0pugrI9po3tI4tPYo8mOuSOJR5cVckcWRkaApxOHfLpejznZ2RnHVlU/wCgrzzypf8AnV5/ySuho4LdTMp6ZoZEzgPFXaVikcQvUpFKxWr6qa2mpRmpnjiH8bgF2b1r3ktete8uRUawskJwKvpD1RsJVe25hj3QW3cMe7W/64s+f/Y/0l5/rcTxG/h5QK9TU1RdKiejP6mR20MjZ4rNyzWbzNezLzWra82r2aQ38MfHKj5hDyI6ICAgIC6LH8n7tmxOH89/gtTSnjF8tjQ8Xyg9+9dV3t3LPzeSzNz+W35aB4KJCt3TDQ2w0AH1DfuW5r+Krf1o/s1dVTJxAQYIygYQZQEBAQaFyudJbKfpquUMbncObj2BR3yUxxzZHkyUxxzaURm1Beb9KYbHAYogcGTHDvPAKjOxmzTxijiGfbZzZ/TFHEfy2KTRHTOE14rHzSHiGnxK910uZ5vL3TR59ck8u7SaZs9N6FDG49b/ADvvViuvir2hZrq4a/6ugyhpGehTQt7owpYpWPZNFKx7D6GkkGH00Lh1FgXJpWfZycdJ7w51ZpezVWduijaTzj837lHbXx27wjtrYrd4R65aEA2n26ox1Ry/iq2TR/5lUyfp8f6SiNwt9XbZuirYXRHkcbndxVC9LUni0M6+O+OeLQ1V4eBAQF2BP9CyOZZHAY/zneC0tPxNjQ8Xyh1+9dVvtnKjm8lmZn8tvy0VFKJbOkZhNp+iIPox7B925betPOKG9q25w1dlTrAgICAgICAg4+ob3DZqMyyedK7dHHne4/goM+aMVefdBnzxhrz7ozarHWagqv0le3uEJ9CLgXDwCq48F809eTspYte+e31MvZN6WnhpoWwwRNjjaNzWjcFfrWKxxDTrWKxxV7YHb8V6dZQEBAQYwM55oPCspKesgdDVRNkjdxa5ebVi0cTDzelbxxaFd6m0rLbdqpotqSk4uHF0f5LLz6s0/dXsyNnUnH+6vZGe1U1IQF2O4nuiPUp9s7wWlp+JsaHi+UT1EAL9cAOHTuVHP5LM3P5bflzj2KNCn/k6r+kpJ6FzhmJ22zuPH7fvWlo35rNf4auhk5r0fwmYV9oiAgICAgINerqY6SmknmdiONuSSvNrRWJmXm1orEzKFWSkk1ReJbrcP+1idsxRkbjjl7uaz8VZ2Lzkt2hm4aTs5JyW7QnTABuDcADAWjENT7PtdBAQEBBgoGUGUHy5rXNIc0EEYIPNcmOXJiJ7qy1jYBa6gVNMP2WV24D5h6u5ZO1g+nPVHuxtvX+nbqr2lHFUUxdFj+T5jXWFxc0E/KH8R3LV0Y/tfLY0PF8oTqL19cP7hyzs3kszc/lt+XOUaFv2O4vtNziqm+i07Mg/eaeKkxZJx3i0JcOScV4st2lmjqIWTQu2o3tBaVuVnqjmH0FbRaImOz2XXRAQEBAQQ/XdTJKKS0Ux/W1LwXf053f77FR3Lc8Y492fvX56cce6SWuijt9DDSxAbMbce/mVbx06KxVdxUilIrDcXt7YdwQVtrO81cl1moo5JYoIDjDHEFxxnJ+KydrNab9MezH3M95yTWPSIeOlL7W01yhp5JZJoJjsljyTjtC5rZ7VvFfZ41di9bxE+sSs9vBa7bZQQXX13q4allBTPdGzY23uacF3ZlZ+5ltExSrM3s14tFKo7Zr7X2+sY9k8kkReA6NziQ4e9VMWe9LRPsp4di9LR/C2mHLQesLbb76Qad0oY7hQTUso82RuAeo8ivGSnXWavGSkZKTWVOzwvp5pIZRiSNxa4doWDMcTw+dms1niXmEcWR5PPUDv7h/gtXR8Xy2NDxfKC3311W+2cs7N5LMzP5bfloqJELpKU6P1H+jpBRVr/wBlefMefoz+Cuaux0ftt2XtTa+nPTbssZjg7eCCOWFq+3LYfaAgICAghLP2/wAocm1vZSs3dmAPEqhH79r8M3ybn4TZX2kIMFBHdQ6WgvEwqGyugn4FzRkOHaFVzatcs89lTPqVyzzzxL5sOkqa1TipkldUTj0SW4DfcuYdSuOeeeXMGnXFPM+spINytrjKDiai09T3trTIXRzR+jI0Z3dR61Xza9cseqtsa9c0erm2jRVPR1LKiqndUOYctbsbIyosWnFZ6pnlDh0a0t1WnlLQrq+IMHggq7XNMKe/yOaMCZgk9/A/csfcr05WJu16cqP81WjuqJ9oY/4K72zvBaWp4mxoeL5RC/euq32zlRzeSzNz+W35aCiQiAgk2mdVS2wNpq0ukpeR5s/JXNfanH+2ey7r7c4/227LHp5mVELJojmN7Q5p6wVqxMTHMNisxaOYeq66ICDCCE6d/wDOrvtcfOx8Qs/B/wDTdm4PXaum60GkICAgICAgICAgIMHggrnyjY/S1Ng7xDv+Kyt7yQx/1Dyx+EUVOO6in2h2k2V2B9M7wWlp+JsaHi+US1Fuv1eBwFQ5Uc3kszc/lt+XOUSEQEGzbqQ19fT0g+lkDT3c17x16rxV7x167xVc0bWxsaxoAa0YAHILeiOPR9FEcRw+KiqgpojLUStjYOJccJa0V9ZLWiscy1qe822px0FZC7P8S8Vy0t2lHXNjt2lute1wy1wPcV75hLyyV0QcH9H+UNxduZUjj3geIWd/htflmePb/KcZWi02UBAQEBAQEBAQEGHcEFVazqhV6gnLTlsQEY93H71jbVurLLD3L9eafs4arqqx/J+wOsTj/Pf4LU0o/tNjQ8XyhOovX9w9u4rPzeSzNz+W35c5RIRAQSjQkMLKua4VT2RxwMwHOOBkq5pxWLddl7RivVN7ezq3jXEMYdHa4uldw6V4833Dmp8u7EelE2XfiPGhlwuNZcZekrJ3SnPok4A9yz7ZLXnm0s7Jktknm0tUbjkbj1heI4h4/D3iraqH/KqZmf0vK9xe0dpeovaPdsi+XYDAuFRgfxr19bJ/09/Xy/8ATXdXVL6plVLM+WZhBa5537jwXn6luqLcvM5LTbqmeZW3Z6+O5W+CqidkPHnd/MfFbeK/XWLN/FkjJSLN9SJBAQEBAQEBAQEHK1FdmWm2ST/SnzYmnm48FDny/Tpygz5fpU6lRuc57y95y528nrKxJ/lge/LCCyPJ6QLAc/Xv8FqaU8YvlsaHi+UFvvrquzzmcs/N5LMzP5bfloqJEIHcgzk7OySdjjs5XefYYXAQEBAQEEi0hfhaKowzk/JJnecf3Hdf4q3q5/pzxPZb08/0rdNuyzY5GyNDmEFpGQRwK14mJjmG1E8xzD7R0QEBAQEBAQa9bWQ0dNJPUPayNgySSvN7RSvMvN7xSObKq1FepLzW9IdoQsyImnkOsrGz5py259mHsZ5y359nKUCuLsdxPdDkiynB+md4LS1PE2NDxfKIX7IvVaD9c5Uc3kszM/lt+WiokQgICAgICAgICByQ4STTWqZrS5tNV5lpeGBvdH+St4Nqcfpbsua+3OL0t2WJQ19PXwCakmZKw82nh39S1aXreOay16XreOa+rZBXp7ZQEBAQEGtXVjKKklqZQSyNpcdneV4veK1m0vF7xSs2lVuoL9U3mfL/ADKdp8yLl3ntWPmzzln7MTPsWy2+zkKBXEBdjuJ7odrjZSQN3TO8FpanibGh4vlE9Rev7h7dyo5vJZm5/Lb8ucokIgICAgICAgICAgIPejramhl6WknfC/mWnj3jmvVbWp/jL3S96f4Sldt15KxrW3CnDxzfHuPwV3HvT2uvY/1CYj98JBS6ws87QXVBhJ5SNIVqu3in3Wq7uGfdvsvlseMtr6YjtkAUkZsc+6aM+Kf9mJb9a4hl9wph3SApOfHH+zk7GKP9nMq9Z2mDPRSPnI5Rt/FQ23McdvVDbdxR29XzbNaW+sl6OYOpifRMnon3pj3KW7+hj3cd54n0d+ojZV0r48h7JWkbjuKs2iLQtTHVWfdTNTC6nqJKd4wY3FvwKwbV6bTD529emZq815eRAC6LI8nnqB39w/wWppRzi+WxoeL5QfURzfa8jh07ln5vLZmbHlt+XPUSIQEBAQEBAQEBAQEBAQF0MDqC4GB1ICAhw6tm1BcLScQSbcXOJ+9vu6lPiz3xz39E+HZvinv6PC81kVxuMlXDGYulw57Cc4djevOW8XtNoect4yXm0NFRIhAXYFjaAkDLCRz6d3gtTSn+02NDxfKHaogNPfqsH0Xu229uVS2a8Zbfdn7VenNP3cpV1cQEBAQEBAQEBAQEBAQEBAQEBAO85K64LjogIHNPuLF0dTdFY4i87Jkc5+O9bOnTjFHLc0q9OGGlrm1SSQMr44z+r82Td83rUO7i5jrj2Qb+HmvXHsg6zGUICAgICAgICAgICAgICAgICAgICAgLo2rZRS3CtipoWkl53n90cyvePHOS0VhJjxzkvFYWrT0wggjiawhrG7IGOS3aViI4fQVrERw35Y2SxOZI3aY4YIK7Mc+jsxzHCs9Uaamtczp6ZrpKNxyMcY+vPYsjY1rY56q9mNs6tsc9VeyOndxVVSgXHRd4dEBAQEBOAQEBOAQEBATgEBAwgICOCD2paWesnbBTROkkdwa3x7F2tZvPFXqlbXniqzNL6fbZ6bblw+rkGZHcm9gWxr4IxR921q68Ya+vd3jnkrC0/9k=;" vertex="1" parent="1">
          <mxGeometry x="1929.93" y="930" width="56.13" height="52.82" as="geometry" />
        </mxCell>
        <mxCell id="gZFIswUFL3Inhh1_GQlH-40" value="" style="shape=image;verticalLabelPosition=bottom;labelBackgroundColor=default;verticalAlign=top;aspect=fixed;imageAspect=0;image=data:image/png,iVBORw0KGgoAAAANSUhEUgAAAOEAAADhCAMAAAAJbSJIAAAAk1BMVEUWd/////8Ab/+92f+PvP8Acf8Ac/+91v8Gd//r8/8Iev+y0P/Z6f/f7v8Pdf+ry/+EtP/1+v/m8P/0+f+hxv/v9v/j7/9Ejv9qpP8vif/U5//Q4v8ffv/F3f8yg/83h/+awP96rP9gnP+Cs/9Kk/9koP8zhP+PuP+20/9WmP+cw/9qp/99rv+pzv9Nkf9EjP8Aa/+olCDpAAAM7klEQVR4nO2d2ZaiOhSGQSEC4kYUBQFFEGdbz/s/3QGrxIkESEKJLv+LXn3RDfkkw84eEkH8dAmvbkDt+hImMgeuO203T1PXHZiMhKbqWXvbV2S51UTJsuLbe8tTiZwEwkGnH/uyjACEpgoAZNmP++0BBaE+j3xAzYW7KmmlH831ioSqFCjo1U2vIKQEklqBUN2t5Ab3zTwBtFa7XMY8Qi9S3gvvR6BEXilC05i8xfB7FqCJ9TytPhGOFtp78qUCbTEqIhzE8vsCJohy/LhwPBD2lvKrG8koedkjEfacd/6AP4IHxDvCkfNma0SeABwVS7h/6zF4Ech7HKH1pqvEowBZ+YTT1WcAJoiraR6hunwnQ5QstFRzCOdvaarlC5T5M6F++pxPmHzEk/5E2P8kwOQr9h8Jx/6r28RZ/viBcN16dZM4q7W+JxzbnzPN/Ajs8R1h9423TPkCrXtLaIafBpgghsMbQtf+rJk0FbLdG8KO/4Hf0O/cEEqfB5ggSlfCoVNzJ4V81ftS5AwzQrXetQIEO1z3n7ReL7VaX2urGaFes0HjuGKujFrXKPD1jHBa75smeY7aPyDUphlht9ZhiBxc9KteQgF1M0KjVsKrmf/XhEZGaNXqJH0ZoWxlhNKHEkpfQk76EtamLyE3fQlr05eQm76EtelLyE1fwtr0JeSmL2Ft+hJy05sRYny7RJEIK6t2QqW6EIGQ4nH1EsJq06kubAr2uPqz2vPyPZuKcFKiwKFeVfBefwm/hC/Sl/BL+CUM9F51PRUIXDTSK6v3r15C3jaN0kCrrXqT3s0updCb7S0o9CWsTV9CbvoS1qYvITd9CWvTl5CbvoS1iY0QUGm1FlhCRS77EJqfgokQ/N2mW1a49FKxV/oRxokCkY1w1cM1uxbpwZ8TzrCO7FrUpSmOfCvCBc1c+FaEMU0W8zsR6lS1Ge9E+I+qOvKdCPdUJgnbij+bjlTuGmIAKWt62AgVjb98A0O4obPuGO1SGscpWSjAGT/rCqFtfoT8dXsQwn0njegqXhpHKMzzAcUpjckmNJBwhuukc7pO2jhCtMVMpaMl5S6yaYQtCfMJ3RnlExtGCIApwxTntJV1DSNEMQZQpK6kbxgh4GZSl7oiulmEMMN1UvrGNYsQ7THR/tGRusC1UYTZOR1PorRJUzWLMMZ4tswD/UMbRSjgvMYuw2EIrHuLZAU7u2rP2wI4/0Wgnvb8KYbQYjiBjIEwPUFZmwXHbeQ4h/56sXecaHs8BTNfqZwSchZyMIDqlqGQnpYw+Vz+0ZGMttdTR+Y5C8w0TVXt6V6nu1uHke0rVd3w8gZD2GaJbFARApL97XyKT+QyR6rubeb7o49aCWW59qEJzn+xZzkLoTph0vu0yNBLJe+Zg2l6nLtwHp2FhDh7pscUnKpKCEiLJWyQJR+zt1k79kwpOPkcbFwQRGI6Y60iIUo+3xjTEJKGensXxj5xYK4x3WLMdnxVJUKQ4y7Gi1JCo/F0vpzJMsrtsID1QDFGUKsQQmDh5oLSUjuL+GdcPj58gfmEA0oPVHVCNFvwiRaarpFMsnDfbsD6Z1iPyStNiOwNv9xnU++st7PbUSmHmH86ZD2YuiQhQMQ5RGEOvF2ktX7vzQAF9wmZz3YqR5h3jjsP6dZydh6U2E8oMo7CkoSgzWvLzteN8KjJK+wnZD6ZugwhKFKd5Qem3g1xv6BJF1GrSAgKbi0Whz2v3TasVP/aU7dH+0MMcavQlNZLWoUQhEPO+82RZx2iQNOy+JMgaH6wdaSNTr61p4pGHE74LyZEy6creFTPCidKeoHQzdr9swlGsqxNlvOOTm/73KjD4RjAQsKnpdj0ds4KCLcjpZzaKaFkNhB4fMJiQnl3/9b2PtCKt+8JpeIf9xvCDUwlxOBhK094fxigudnm2ZRYTPAdg767mhMepwAWEN5Z/Ka3rHy7FZInhw7NfiuR9R+PtEwy4d1CMdpRXR+U7Jm3c49mem2n471uwtM1jjDa046KZEwGDo3dPnJ3MWK9VauA8Oo6USOGq0vShcSel/PtPMhb2BqFZ7IkIayyuXDMfO8FkmcLj8Z+VzehXWL6xolIKGeZy2pY0iVIEqDVvkvDmOyZHZ+2C5EIbzZtEgfA9Ingb/9ReUJG3noiUw1JEiFaXgZOh9uZ1Mlyc5rT2QHmtJSxUYEQhMtlOyp9fDJHSD7NXTrjvGc4gVIRkkSYrfY7Pn00ExLsNS6cXaCRN4+qDUkSYfRrcPVi3iUfAMpJonX8jKaHVYUhSRqHF3vGqqOoBVoxpTGXaNgOg7KrJJ4Q/N+gej1XQGWPp1TPSFbJMlYkgfBy5ZVXxy1eIDD7foausZ8UbwUIhJdYULeOwqvWkjlAkELqxtXnWpkQbX/ND6o6jgJlD2fX4J9DHJOEb3i5XY/ZJ/ssOFYLQRZIN0K8eU4g/DVKTf7XXkDQ4Qkonn2uB1vJXSdLEE64r4YKLh2fCXLQCSc5F4i/gBCUfzUA/siTtquH/kog/E1QMmnKGkmAPi4NONmFUtqrNxp6Vmjf3pZe/A1FlnSdHGkSdp0Y7ScHDlPQMI1OZjkDJQhDrquFTFjp+8lPHywobfI7maNk0zxDrWRYtvCE4e+/Njj20ttrJZ+0a0GaDQHRlIc1kEj/d4gDDb/iR7/v8fhd5UUag2L39z0g+86GS9hDTN11HRdHCMdf23+w5bbB9wnJHNPrjAbgRwy+8jzlEmYbYIkTINIIy8R9CimAFls8A+v5u6dLqqDLZb0AOOHSRxPpq8f9N2r5EpWHtTShoGRjps+BEISIsBDoecYvoEl/yokx34vhXLqJzr5DBAgJ4UQdU9QEMDt0uEys+YTX23TP8ziLEDHZQd1iNz/ppMPmDCAR3hjIeyaHKQhxm/D2sU3OxmrZO+ocCCLhbXRUZ1kxkHYg+dVyx+D9A+C0porPFREK/rVhU+okT0CBQRpK+rLEQxLGQ5uFEReZubFApjMqREDCnugYdY/lBgAI/pKBERddm90YFm5M4fkGhTgCkx/ucR0kCMnJgORLeF8sp1cOAqdhUaLb1+wGlXoGQie6gDme0L7tYao1qxIxSCxoqWAntJtV7RZImIQ0nbVUpkIiLyrbU9OKE+IMmshc0BT7JCvkclPZCsBnm/gPXrGO45eYGRLD+bgrCku41JkBSJ5UTQrAZwxB/BDOHG7CQCG60tMgaNgtDLtsjgxLLKDTutI+mZTX9nQK2cizIj8Nbz23EJKfF1aOpRe+3JzTrT7XV8FqX8FkJREKOc7NoW7sT9pPMmJ2ZEf6hx8fOoMS/UffM9TbZYzatvQekphfOsOUlPXa1mK/jOPjKQjsOF7u+9a03MZ8aAQMyTk3TUOtleSW+pDkHGHSztVUB2PddXuDQfkeox/4hVwTmzDslPhdC/K8bZ5xFLMbc71tPNlDLo3C7I6iXP0TP0Td4R8zB20iFczdRfUWaNbl400YS9S5TUTExH4K26RZp7hmZjbn4ExQDfxmnlnIdwy8XV5c9wRaSJ868SNzs9TqvPo79UBiU1hKVHYl+wRcIXI5dSKGBMOyjMIszPfOlao/RIpDHTQZdLcyc31PKUgZtt2cmbVkhWVq8NLwufNtrf3zvpVIiaWnTWTZOmBQjlLVXfaoc7DJpjpvpVnXj16d0pXOaU9fVNhlm976xJbETCV4slkr1ePLSrzzStQ2jXrt/lFhTUSnVWKzTqRr1nXFm3RQYiitNy7BHBzp7XlaV/invfOpnbDKbNbK52KkG6VTtLDaT4Vq5sDd7A5ResLAi77ebTORH+1UKkLhXNoEaUHeMXIO/V1agjhfHJZbe+VrQuXSmvoE8pyW8Of/nw8tl+XWWbKcbog5JxSz6iYXw3r9GUN1SLYyQuPPFuU/FTIywu6HEnYzQuba/kYKtGlGqHMoum2gfkKEZ0K+dSNNEdjX9XDofCIhcoYZoSh95DiUrlab2OGXwNYYXUJLP4Qu24FMjRSy3RtCM/zAbxgObwiZDyxqnrLzQn8Jx/wLD14ssMd3hOKa6ey3Bqq1Fu8Jx59m1vjjB0Kx/1mz6fWK3oxQP30SIrpmV2aE4pw9+twY3RYGXAnrKRh9jW6vyrgSitM6KkZfoqwI9oFQtJrjJ2MSIEvMJxT3dURp/1wg70Uc4ch5vSuXWXDNw38mFHs8jth6scC5j5HdE4q95bu7TuXlQxDwgVAcxG89FkF+zDd8IhRHizfeSOWdRfpEKJoG1cFeDRCgifEc3HwmTPOB39KAAyW3viqPUFSt4FUBXFoBtFa73MBtLmEyGqVAeSczFSmBhAlMYwiT3dQ88hsU7iQoaaUf4ZNhsITJwtHpx37OUQUNEgDIsh/324QcTAJhmiTrpRccKJdIb8Mky4pv762C7BAi4YXTdaft5mnqumUSy0sQvrm+hO+v/wFh6C+unGtyBAAAAABJRU5ErkJggg==;" vertex="1" parent="1">
          <mxGeometry x="1930" y="1020" width="60" height="60" as="geometry" />
        </mxCell>
        <mxCell id="gZFIswUFL3Inhh1_GQlH-46" style="edgeStyle=orthogonalEdgeStyle;rounded=0;orthogonalLoop=1;jettySize=auto;html=1;exitX=1;exitY=0.5;exitDx=0;exitDy=0;entryX=0;entryY=0.5;entryDx=0;entryDy=0;" edge="1" parent="1" source="gZFIswUFL3Inhh1_GQlH-41" target="gZFIswUFL3Inhh1_GQlH-45">
          <mxGeometry relative="1" as="geometry" />
        </mxCell>
        <mxCell id="gZFIswUFL3Inhh1_GQlH-47" value="结转" style="edgeLabel;html=1;align=center;verticalAlign=middle;resizable=0;points=[];" vertex="1" connectable="0" parent="gZFIswUFL3Inhh1_GQlH-46">
          <mxGeometry x="-0.2857" y="2" relative="1" as="geometry">
            <mxPoint y="1" as="offset" />
          </mxGeometry>
        </mxCell>
        <mxCell id="gZFIswUFL3Inhh1_GQlH-41" value="第四方支付机构" style="image;html=1;image=img/lib/clip_art/general/Gear_128x128.png" vertex="1" parent="1">
          <mxGeometry x="2090" y="919" width="80" height="80" as="geometry" />
        </mxCell>
        <mxCell id="gZFIswUFL3Inhh1_GQlH-43" style="edgeStyle=orthogonalEdgeStyle;rounded=0;orthogonalLoop=1;jettySize=auto;html=1;exitX=1;exitY=0.5;exitDx=0;exitDy=0;entryX=0;entryY=0.5;entryDx=0;entryDy=0;" edge="1" parent="1" source="gZFIswUFL3Inhh1_GQlH-37" target="gZFIswUFL3Inhh1_GQlH-42">
          <mxGeometry relative="1" as="geometry" />
        </mxCell>
        <mxCell id="gZFIswUFL3Inhh1_GQlH-48" value="支付" style="edgeLabel;html=1;align=center;verticalAlign=middle;resizable=0;points=[];" vertex="1" connectable="0" parent="gZFIswUFL3Inhh1_GQlH-43">
          <mxGeometry x="-0.205" y="4" relative="1" as="geometry">
            <mxPoint y="1" as="offset" />
          </mxGeometry>
        </mxCell>
        <mxCell id="gZFIswUFL3Inhh1_GQlH-45" value="卖家" style="image;html=1;image=img/lib/clip_art/people/Farmer_Man_Black_128x128.png" vertex="1" parent="1">
          <mxGeometry x="2240" y="919" width="80" height="80" as="geometry" />
        </mxCell>
      </root>
    </mxGraphModel>
  </diagram>
</mxfile>
